%
M48
M72
T01C0.01969
T02C0.03200
T03C0.04000
%
T01
X68976Y56610
X166417Y46768
X166417Y50705
X107362Y46768
X107362Y50705
X164449Y78264
X174291Y78264
X203819Y166846
X203819Y178657
X353425Y188500
X347520Y188500
X341614Y188500
X335709Y188500
X329803Y188500
X323898Y188500
X316024Y212122
X359331Y212122
X319961Y212122
X333740Y212122
X337677Y212122
X343583Y212122
X308150Y46768
X308150Y50705
X319961Y50705
X379016Y46768
X379016Y50705
X319961Y46768
X249094Y46768
X249094Y50705
X237283Y50705
X237283Y46768
X235315Y78264
X245157Y78264
X178228Y46768
X178228Y50705
X333740Y113697
X369173Y113697
X154606Y192437
X150669Y196374
T02
X24685Y15272
X16811Y15272
X156575Y50705
X148701Y50705
X140827Y50705
X132953Y50705
X125079Y50705
X117205Y50705
X375079Y129445
X382953Y129445
X367205Y129445
X359331Y129445
X351457Y129445
X308150Y129445
X316024Y129445
X323898Y129445
X343583Y129445
X300276Y129445
X292402Y129445
X284528Y129445
X211693Y133382
X203819Y133382
X195945Y133382
X188071Y133382
X168386Y133382
X140827Y133382
X160512Y133382
X132953Y133382
X125079Y133382
X117205Y133382
X227441Y50705
X219567Y50705
X211693Y50705
X203819Y50705
X195945Y50705
X188071Y50705
X298307Y50705
X290433Y50705
X282559Y50705
X274685Y50705
X266811Y50705
X258937Y50705
X327835Y15272
X335709Y15272
X379016Y15272
X386890Y15272
X369173Y50705
X361299Y50705
X353425Y50705
X345551Y50705
X337677Y50705
X329803Y50705
T03
X44370Y15272
X54370Y15272
X64370Y15272
X85000Y28835
X95000Y28835
X105000Y28835
X115000Y28835
X125000Y28835
X135000Y28835
X145000Y28835
X155000Y28835
X165000Y28835
X175000Y28835
X185000Y28835
X195000Y28835
X205000Y28835
X215000Y28835
X225000Y28835
X235000Y28835
X245000Y28835
X255000Y28835
X265000Y28835
X275000Y28835
X285000Y28835
X295000Y28835
X305000Y28835
X305000Y18835
X295000Y18835
X285000Y18835
X275000Y18835
X265000Y18835
X255000Y18835
X245000Y18835
X235000Y18835
X225000Y18835
X215000Y18835
X205000Y18835
X195000Y18835
X185000Y18835
X175000Y18835
X165000Y18835
X155000Y18835
X145000Y18835
X135000Y18835
X125000Y18835
X115000Y18835
X105000Y18835
X95000Y18835
X85000Y18835
X64370Y40862
X54370Y40862
X44370Y40862
X85000Y218835
X95000Y218835
X105000Y218835
X115000Y218835
X125000Y218835
X135000Y218835
X145000Y218835
X155000Y218835
X165000Y218835
X175000Y218835
X185000Y218835
X195000Y218835
X205000Y218835
X215000Y218835
X225000Y218835
X235000Y218835
X245000Y218835
X255000Y218835
X265000Y218835
X275000Y218835
X285000Y218835
X295000Y218835
X305000Y218835
X305000Y208835
X295000Y208835
X285000Y208835
X275000Y208835
X265000Y208835
X255000Y208835
X245000Y208835
X235000Y208835
X225000Y208835
X215000Y208835
X205000Y208835
X195000Y208835
X185000Y208835
X175000Y208835
X165000Y208835
X155000Y208835
X145000Y208835
X135000Y208835
X125000Y208835
X115000Y208835
X105000Y208835
X95000Y208835
X85000Y208835
X284528Y145193
X304213Y145193
X323898Y145193
X382953Y145193
X363268Y145193
X382953Y155193
X382953Y165193
X363268Y165193
X363268Y155193
X343583Y155193
X343583Y145193
X323898Y155193
X304213Y155193
X304213Y165193
X323898Y165193
X343583Y165193
X284528Y165193
X284528Y155193
M30
