G75*
%MOIN*%
%OFA0B0*%
%FSLAX25Y25*%
%IPPOS*%
%LPD*%
%AMOC8*
5,1,8,0,0,1.08239X$1,22.5*
%
%ADD10OC8,0.07000*%
%ADD11R,0.07800X0.07800*%
%ADD12C,0.07800*%
%ADD13R,0.07408X0.06384*%
%ADD14R,0.04337X0.04731*%
%ADD15R,0.04731X0.04337*%
%ADD16R,0.03000X0.08400*%
%ADD17R,0.03550X0.03550*%
%ADD18C,0.02959*%
%ADD19R,0.03400X0.06400*%
D10*
X0016811Y0015272D03*
X0024685Y0015272D03*
X0117205Y0050705D03*
X0125079Y0050705D03*
X0132953Y0050705D03*
X0140827Y0050705D03*
X0148701Y0050705D03*
X0156575Y0050705D03*
X0188071Y0050705D03*
X0195945Y0050705D03*
X0203819Y0050705D03*
X0211693Y0050705D03*
X0219567Y0050705D03*
X0227441Y0050705D03*
X0258937Y0050705D03*
X0266811Y0050705D03*
X0274685Y0050705D03*
X0282559Y0050705D03*
X0290433Y0050705D03*
X0298307Y0050705D03*
X0329803Y0050705D03*
X0337677Y0050705D03*
X0345551Y0050705D03*
X0353425Y0050705D03*
X0361299Y0050705D03*
X0369173Y0050705D03*
X0379016Y0015272D03*
X0386890Y0015272D03*
X0335709Y0015272D03*
X0327835Y0015272D03*
X0323898Y0129445D03*
X0316024Y0129445D03*
X0308150Y0129445D03*
X0300276Y0129445D03*
X0292402Y0129445D03*
X0284528Y0129445D03*
X0343583Y0129445D03*
X0351457Y0129445D03*
X0359331Y0129445D03*
X0367205Y0129445D03*
X0375079Y0129445D03*
X0382953Y0129445D03*
X0211693Y0133382D03*
X0203819Y0133382D03*
X0195945Y0133382D03*
X0188071Y0133382D03*
X0168386Y0133382D03*
X0160512Y0133382D03*
X0140827Y0133382D03*
X0132953Y0133382D03*
X0125079Y0133382D03*
X0117205Y0133382D03*
D11*
X0085000Y0208835D03*
X0085000Y0018835D03*
X0044370Y0015272D03*
D12*
X0054370Y0015272D03*
X0064370Y0015272D03*
X0085000Y0028835D03*
X0095000Y0028835D03*
X0105000Y0028835D03*
X0115000Y0028835D03*
X0125000Y0028835D03*
X0135000Y0028835D03*
X0145000Y0028835D03*
X0155000Y0028835D03*
X0165000Y0028835D03*
X0175000Y0028835D03*
X0185000Y0028835D03*
X0195000Y0028835D03*
X0205000Y0028835D03*
X0215000Y0028835D03*
X0225000Y0028835D03*
X0235000Y0028835D03*
X0245000Y0028835D03*
X0255000Y0028835D03*
X0265000Y0028835D03*
X0275000Y0028835D03*
X0285000Y0028835D03*
X0295000Y0028835D03*
X0305000Y0028835D03*
X0305000Y0018835D03*
X0295000Y0018835D03*
X0285000Y0018835D03*
X0275000Y0018835D03*
X0265000Y0018835D03*
X0255000Y0018835D03*
X0245000Y0018835D03*
X0235000Y0018835D03*
X0225000Y0018835D03*
X0215000Y0018835D03*
X0205000Y0018835D03*
X0195000Y0018835D03*
X0185000Y0018835D03*
X0175000Y0018835D03*
X0165000Y0018835D03*
X0155000Y0018835D03*
X0145000Y0018835D03*
X0135000Y0018835D03*
X0125000Y0018835D03*
X0115000Y0018835D03*
X0105000Y0018835D03*
X0095000Y0018835D03*
X0064370Y0040862D03*
X0054370Y0040862D03*
X0044370Y0040862D03*
X0284528Y0145193D03*
X0284528Y0155193D03*
X0284528Y0165193D03*
X0304213Y0165193D03*
X0323898Y0165193D03*
X0323898Y0155193D03*
X0323898Y0145193D03*
X0304213Y0145193D03*
X0304213Y0155193D03*
X0343583Y0155193D03*
X0343583Y0145193D03*
X0363268Y0145193D03*
X0363268Y0155193D03*
X0363268Y0165193D03*
X0382953Y0165193D03*
X0382953Y0155193D03*
X0382953Y0145193D03*
X0343583Y0165193D03*
X0305000Y0208835D03*
X0295000Y0208835D03*
X0285000Y0208835D03*
X0275000Y0208835D03*
X0265000Y0208835D03*
X0255000Y0208835D03*
X0245000Y0208835D03*
X0235000Y0208835D03*
X0225000Y0208835D03*
X0215000Y0208835D03*
X0205000Y0208835D03*
X0195000Y0208835D03*
X0185000Y0208835D03*
X0175000Y0208835D03*
X0165000Y0208835D03*
X0155000Y0208835D03*
X0145000Y0208835D03*
X0135000Y0208835D03*
X0125000Y0208835D03*
X0115000Y0208835D03*
X0105000Y0208835D03*
X0095000Y0208835D03*
X0095000Y0218835D03*
X0085000Y0218835D03*
X0105000Y0218835D03*
X0115000Y0218835D03*
X0125000Y0218835D03*
X0135000Y0218835D03*
X0145000Y0218835D03*
X0155000Y0218835D03*
X0165000Y0218835D03*
X0175000Y0218835D03*
X0185000Y0218835D03*
X0195000Y0218835D03*
X0205000Y0218835D03*
X0215000Y0218835D03*
X0225000Y0218835D03*
X0235000Y0218835D03*
X0245000Y0218835D03*
X0255000Y0218835D03*
X0265000Y0218835D03*
X0275000Y0218835D03*
X0285000Y0218835D03*
X0295000Y0218835D03*
X0305000Y0218835D03*
D13*
X0306339Y0104425D03*
X0296339Y0104425D03*
X0286339Y0104425D03*
X0270906Y0104425D03*
X0260906Y0104425D03*
X0250906Y0104425D03*
X0235472Y0104425D03*
X0225472Y0104425D03*
X0215472Y0104425D03*
X0200039Y0104425D03*
X0190039Y0104425D03*
X0180039Y0104425D03*
X0164606Y0104425D03*
X0154606Y0104425D03*
X0144606Y0104425D03*
X0129173Y0104425D03*
X0119173Y0104425D03*
X0109173Y0104425D03*
X0109173Y0067850D03*
X0119173Y0067850D03*
X0129173Y0067850D03*
X0144606Y0067850D03*
X0154606Y0067850D03*
X0164606Y0067850D03*
X0180039Y0067850D03*
X0190039Y0067850D03*
X0200039Y0067850D03*
X0215472Y0067850D03*
X0225472Y0067850D03*
X0235472Y0067850D03*
X0250906Y0067850D03*
X0260906Y0067850D03*
X0270906Y0067850D03*
X0286339Y0067850D03*
X0296339Y0067850D03*
X0306339Y0067850D03*
X0321772Y0067850D03*
X0331772Y0067850D03*
X0341772Y0067850D03*
X0357205Y0067850D03*
X0367205Y0067850D03*
X0377205Y0067850D03*
X0377205Y0104425D03*
X0367205Y0104425D03*
X0357205Y0104425D03*
X0341772Y0104425D03*
X0331772Y0104425D03*
X0321772Y0104425D03*
D14*
X0309528Y0113697D03*
X0302835Y0113697D03*
X0274094Y0113697D03*
X0267402Y0113697D03*
X0238661Y0113697D03*
X0231969Y0113697D03*
X0203228Y0113697D03*
X0196535Y0113697D03*
X0167795Y0113697D03*
X0161102Y0113697D03*
X0132362Y0113697D03*
X0125669Y0113697D03*
X0281181Y0198343D03*
X0287874Y0198343D03*
X0371142Y0201689D03*
X0371142Y0194996D03*
X0373701Y0113697D03*
X0380394Y0113697D03*
X0344961Y0113697D03*
X0338268Y0113697D03*
D15*
X0333740Y0141846D03*
X0333740Y0148539D03*
X0333740Y0161531D03*
X0333740Y0168224D03*
X0314055Y0168224D03*
X0314055Y0161531D03*
X0314055Y0148539D03*
X0314055Y0141846D03*
X0294370Y0141846D03*
X0294370Y0148539D03*
X0294370Y0161531D03*
X0294370Y0168224D03*
X0275669Y0168224D03*
X0275669Y0161531D03*
X0275669Y0148539D03*
X0275669Y0141846D03*
X0353425Y0141846D03*
X0353425Y0148539D03*
X0353425Y0161531D03*
X0353425Y0168224D03*
X0373110Y0168224D03*
X0373110Y0161531D03*
X0373110Y0148539D03*
X0373110Y0141846D03*
X0380984Y0032398D03*
X0380984Y0025705D03*
X0365236Y0016650D03*
X0365236Y0009957D03*
X0357362Y0009957D03*
X0357362Y0016650D03*
X0349488Y0016650D03*
X0349488Y0009957D03*
X0341614Y0025705D03*
X0341614Y0032398D03*
X0024685Y0032398D03*
X0024685Y0025705D03*
D16*
X0317146Y0180511D03*
X0322146Y0180511D03*
X0327146Y0180511D03*
X0332146Y0180511D03*
X0337146Y0180511D03*
X0342146Y0180511D03*
X0347146Y0180511D03*
X0352146Y0180511D03*
X0357146Y0180511D03*
X0362146Y0180511D03*
X0362146Y0220111D03*
X0357146Y0220111D03*
X0352146Y0220111D03*
X0347146Y0220111D03*
X0342146Y0220111D03*
X0337146Y0220111D03*
X0332146Y0220111D03*
X0327146Y0220111D03*
X0322146Y0220111D03*
X0317146Y0220111D03*
D17*
X0299291Y0198343D03*
X0293386Y0198343D03*
X0365236Y0032004D03*
X0373110Y0032004D03*
X0373110Y0026098D03*
X0365236Y0026098D03*
X0016811Y0026098D03*
X0016811Y0032004D03*
D18*
X0349685Y0026001D02*
X0349685Y0026001D01*
X0349685Y0023047D01*
X0349685Y0023047D01*
X0349685Y0026001D01*
X0357165Y0026001D02*
X0357165Y0026001D01*
X0357165Y0023047D01*
X0357165Y0023047D01*
X0357165Y0026001D01*
X0353425Y0035056D02*
X0353425Y0035056D01*
X0353425Y0032102D01*
X0353425Y0032102D01*
X0353425Y0035056D01*
D19*
X0063681Y0057421D03*
X0048681Y0057421D03*
X0048681Y0079421D03*
X0063681Y0079421D03*
M02*
