G75*
%MOIN*%
%OFA0B0*%
%FSLAX25Y25*%
%IPPOS*%
%LPD*%
%AMOC8*
5,1,8,0,0,1.08239X$1,22.5*
%
%ADD10OC8,0.06600*%
%ADD11R,0.07400X0.07400*%
%ADD12C,0.07400*%
%ADD13C,0.00984*%
%ADD14C,0.03169*%
%ADD15C,0.03937*%
%ADD16C,0.01969*%
D10*
X0016811Y0015272D03*
X0024685Y0015272D03*
X0117205Y0050705D03*
X0125079Y0050705D03*
X0132953Y0050705D03*
X0140827Y0050705D03*
X0148701Y0050705D03*
X0156575Y0050705D03*
X0188071Y0050705D03*
X0195945Y0050705D03*
X0203819Y0050705D03*
X0211693Y0050705D03*
X0219567Y0050705D03*
X0227441Y0050705D03*
X0258937Y0050705D03*
X0266811Y0050705D03*
X0274685Y0050705D03*
X0282559Y0050705D03*
X0290433Y0050705D03*
X0298307Y0050705D03*
X0329803Y0050705D03*
X0337677Y0050705D03*
X0345551Y0050705D03*
X0353425Y0050705D03*
X0361299Y0050705D03*
X0369173Y0050705D03*
X0379016Y0015272D03*
X0386890Y0015272D03*
X0335709Y0015272D03*
X0327835Y0015272D03*
X0323898Y0129445D03*
X0316024Y0129445D03*
X0308150Y0129445D03*
X0300276Y0129445D03*
X0292402Y0129445D03*
X0284528Y0129445D03*
X0343583Y0129445D03*
X0351457Y0129445D03*
X0359331Y0129445D03*
X0367205Y0129445D03*
X0375079Y0129445D03*
X0382953Y0129445D03*
X0211693Y0133382D03*
X0203819Y0133382D03*
X0195945Y0133382D03*
X0188071Y0133382D03*
X0168386Y0133382D03*
X0160512Y0133382D03*
X0140827Y0133382D03*
X0132953Y0133382D03*
X0125079Y0133382D03*
X0117205Y0133382D03*
D11*
X0085000Y0208835D03*
X0085000Y0018835D03*
X0044370Y0015272D03*
D12*
X0054370Y0015272D03*
X0064370Y0015272D03*
X0085000Y0028835D03*
X0095000Y0028835D03*
X0105000Y0028835D03*
X0115000Y0028835D03*
X0125000Y0028835D03*
X0135000Y0028835D03*
X0145000Y0028835D03*
X0155000Y0028835D03*
X0165000Y0028835D03*
X0175000Y0028835D03*
X0185000Y0028835D03*
X0195000Y0028835D03*
X0205000Y0028835D03*
X0215000Y0028835D03*
X0225000Y0028835D03*
X0235000Y0028835D03*
X0245000Y0028835D03*
X0255000Y0028835D03*
X0265000Y0028835D03*
X0275000Y0028835D03*
X0285000Y0028835D03*
X0295000Y0028835D03*
X0305000Y0028835D03*
X0305000Y0018835D03*
X0295000Y0018835D03*
X0285000Y0018835D03*
X0275000Y0018835D03*
X0265000Y0018835D03*
X0255000Y0018835D03*
X0245000Y0018835D03*
X0235000Y0018835D03*
X0225000Y0018835D03*
X0215000Y0018835D03*
X0205000Y0018835D03*
X0195000Y0018835D03*
X0185000Y0018835D03*
X0175000Y0018835D03*
X0165000Y0018835D03*
X0155000Y0018835D03*
X0145000Y0018835D03*
X0135000Y0018835D03*
X0125000Y0018835D03*
X0115000Y0018835D03*
X0105000Y0018835D03*
X0095000Y0018835D03*
X0064370Y0040862D03*
X0054370Y0040862D03*
X0044370Y0040862D03*
X0284528Y0145193D03*
X0284528Y0155193D03*
X0284528Y0165193D03*
X0304213Y0165193D03*
X0323898Y0165193D03*
X0323898Y0155193D03*
X0323898Y0145193D03*
X0304213Y0145193D03*
X0304213Y0155193D03*
X0343583Y0155193D03*
X0343583Y0145193D03*
X0363268Y0145193D03*
X0363268Y0155193D03*
X0363268Y0165193D03*
X0382953Y0165193D03*
X0382953Y0155193D03*
X0382953Y0145193D03*
X0343583Y0165193D03*
X0305000Y0208835D03*
X0295000Y0208835D03*
X0285000Y0208835D03*
X0275000Y0208835D03*
X0265000Y0208835D03*
X0255000Y0208835D03*
X0245000Y0208835D03*
X0235000Y0208835D03*
X0225000Y0208835D03*
X0215000Y0208835D03*
X0205000Y0208835D03*
X0195000Y0208835D03*
X0185000Y0208835D03*
X0175000Y0208835D03*
X0165000Y0208835D03*
X0155000Y0208835D03*
X0145000Y0208835D03*
X0135000Y0208835D03*
X0125000Y0208835D03*
X0115000Y0208835D03*
X0105000Y0208835D03*
X0095000Y0208835D03*
X0095000Y0218835D03*
X0085000Y0218835D03*
X0105000Y0218835D03*
X0115000Y0218835D03*
X0125000Y0218835D03*
X0135000Y0218835D03*
X0145000Y0218835D03*
X0155000Y0218835D03*
X0165000Y0218835D03*
X0175000Y0218835D03*
X0185000Y0218835D03*
X0195000Y0218835D03*
X0205000Y0218835D03*
X0215000Y0218835D03*
X0225000Y0218835D03*
X0235000Y0218835D03*
X0245000Y0218835D03*
X0255000Y0218835D03*
X0265000Y0218835D03*
X0275000Y0218835D03*
X0285000Y0218835D03*
X0295000Y0218835D03*
X0305000Y0218835D03*
D13*
X0006492Y0092520D02*
X0006492Y0002984D01*
X0317992Y0002984D01*
X0317992Y0004937D01*
X0077345Y0004937D01*
X0076441Y0005312D01*
X0072504Y0009249D01*
X0071812Y0009941D01*
X0071437Y0010845D01*
X0071437Y0026063D01*
X0068941Y0028559D01*
X0057660Y0028559D01*
X0056756Y0028934D01*
X0052284Y0033405D01*
X0051909Y0034310D01*
X0051909Y0036279D01*
X0051438Y0036474D01*
X0049982Y0037930D01*
X0049370Y0039407D01*
X0048758Y0037930D01*
X0047302Y0036474D01*
X0045400Y0035686D01*
X0043340Y0035686D01*
X0041438Y0036474D01*
X0039982Y0037930D01*
X0039194Y0039833D01*
X0039194Y0041892D01*
X0039982Y0043794D01*
X0041438Y0045251D01*
X0043340Y0046039D01*
X0045400Y0046039D01*
X0047302Y0045251D01*
X0048758Y0043794D01*
X0049370Y0042318D01*
X0049982Y0043794D01*
X0051438Y0045251D01*
X0053340Y0046039D01*
X0055400Y0046039D01*
X0057302Y0045251D01*
X0058758Y0043794D01*
X0059370Y0042318D01*
X0059982Y0043794D01*
X0061438Y0045251D01*
X0063340Y0046039D01*
X0065400Y0046039D01*
X0067302Y0045251D01*
X0068758Y0043794D01*
X0069546Y0041892D01*
X0069546Y0039833D01*
X0068758Y0037930D01*
X0067302Y0036474D01*
X0065400Y0035686D01*
X0063340Y0035686D01*
X0061438Y0036474D01*
X0059982Y0037930D01*
X0059370Y0039407D01*
X0058758Y0037930D01*
X0057302Y0036474D01*
X0056831Y0036279D01*
X0056831Y0035818D01*
X0059169Y0033480D01*
X0070450Y0033480D01*
X0071354Y0033106D01*
X0072047Y0032414D01*
X0075984Y0028477D01*
X0076358Y0027572D01*
X0076358Y0012354D01*
X0078854Y0009858D01*
X0317992Y0009858D01*
X0317992Y0036925D01*
X0162311Y0036925D01*
X0165226Y0034011D01*
X0166030Y0034011D01*
X0167932Y0033223D01*
X0169388Y0031767D01*
X0170000Y0030290D01*
X0170612Y0031767D01*
X0172068Y0033223D01*
X0173970Y0034011D01*
X0176030Y0034011D01*
X0177932Y0033223D01*
X0179388Y0031767D01*
X0180000Y0030290D01*
X0180612Y0031767D01*
X0182068Y0033223D01*
X0183970Y0034011D01*
X0186030Y0034011D01*
X0187932Y0033223D01*
X0189388Y0031767D01*
X0190000Y0030290D01*
X0190612Y0031767D01*
X0192068Y0033223D01*
X0193970Y0034011D01*
X0196030Y0034011D01*
X0197932Y0033223D01*
X0199388Y0031767D01*
X0200000Y0030290D01*
X0200612Y0031767D01*
X0202068Y0033223D01*
X0203970Y0034011D01*
X0206030Y0034011D01*
X0207932Y0033223D01*
X0209388Y0031767D01*
X0210000Y0030290D01*
X0210612Y0031767D01*
X0212068Y0033223D01*
X0213970Y0034011D01*
X0216030Y0034011D01*
X0217932Y0033223D01*
X0219388Y0031767D01*
X0220000Y0030290D01*
X0220612Y0031767D01*
X0222068Y0033223D01*
X0223970Y0034011D01*
X0226030Y0034011D01*
X0227932Y0033223D01*
X0229388Y0031767D01*
X0230000Y0030290D01*
X0230612Y0031767D01*
X0232068Y0033223D01*
X0233970Y0034011D01*
X0236030Y0034011D01*
X0237932Y0033223D01*
X0239388Y0031767D01*
X0240000Y0030290D01*
X0240612Y0031767D01*
X0242068Y0033223D01*
X0243970Y0034011D01*
X0246030Y0034011D01*
X0247932Y0033223D01*
X0249388Y0031767D01*
X0250000Y0030290D01*
X0250612Y0031767D01*
X0252068Y0033223D01*
X0253970Y0034011D01*
X0256030Y0034011D01*
X0257932Y0033223D01*
X0259388Y0031767D01*
X0260000Y0030290D01*
X0260612Y0031767D01*
X0262068Y0033223D01*
X0263970Y0034011D01*
X0266030Y0034011D01*
X0267932Y0033223D01*
X0269388Y0031767D01*
X0270000Y0030290D01*
X0270612Y0031767D01*
X0272068Y0033223D01*
X0273970Y0034011D01*
X0276030Y0034011D01*
X0277932Y0033223D01*
X0279388Y0031767D01*
X0280000Y0030290D01*
X0280612Y0031767D01*
X0282068Y0033223D01*
X0283970Y0034011D01*
X0286030Y0034011D01*
X0287932Y0033223D01*
X0289388Y0031767D01*
X0290008Y0030272D01*
X0290188Y0030828D01*
X0290559Y0031556D01*
X0291040Y0032217D01*
X0291618Y0032795D01*
X0292279Y0033275D01*
X0293007Y0033646D01*
X0293784Y0033899D01*
X0294508Y0034014D01*
X0294508Y0029327D01*
X0295492Y0029327D01*
X0295492Y0034014D01*
X0296216Y0033899D01*
X0296993Y0033646D01*
X0297721Y0033275D01*
X0298382Y0032795D01*
X0298960Y0032217D01*
X0299441Y0031556D01*
X0299812Y0030828D01*
X0300000Y0030248D01*
X0300188Y0030828D01*
X0300559Y0031556D01*
X0301040Y0032217D01*
X0301618Y0032795D01*
X0302279Y0033275D01*
X0303007Y0033646D01*
X0303784Y0033899D01*
X0304508Y0034014D01*
X0304508Y0029327D01*
X0305492Y0029327D01*
X0305492Y0034014D01*
X0306216Y0033899D01*
X0306993Y0033646D01*
X0307721Y0033275D01*
X0308382Y0032795D01*
X0308960Y0032217D01*
X0309441Y0031556D01*
X0309812Y0030828D01*
X0310064Y0030050D01*
X0310179Y0029327D01*
X0305492Y0029327D01*
X0305492Y0028343D01*
X0310179Y0028343D01*
X0310064Y0027619D01*
X0309812Y0026842D01*
X0309441Y0026113D01*
X0308960Y0025452D01*
X0308382Y0024874D01*
X0307721Y0024394D01*
X0306993Y0024023D01*
X0306414Y0023835D01*
X0306993Y0023646D01*
X0307721Y0023275D01*
X0308382Y0022795D01*
X0308960Y0022217D01*
X0309441Y0021556D01*
X0309812Y0020828D01*
X0310064Y0020050D01*
X0310179Y0019327D01*
X0305492Y0019327D01*
X0304508Y0019327D01*
X0304508Y0028342D01*
X0305492Y0028342D01*
X0305492Y0023656D01*
X0305492Y0019327D01*
X0305492Y0018343D01*
X0310179Y0018343D01*
X0310064Y0017619D01*
X0309812Y0016842D01*
X0309441Y0016113D01*
X0308960Y0015452D01*
X0308382Y0014874D01*
X0307721Y0014394D01*
X0306993Y0014023D01*
X0306216Y0013770D01*
X0305492Y0013656D01*
X0305492Y0018342D01*
X0304508Y0018342D01*
X0304508Y0013656D01*
X0303784Y0013770D01*
X0303007Y0014023D01*
X0302279Y0014394D01*
X0301618Y0014874D01*
X0301040Y0015452D01*
X0300559Y0016113D01*
X0300188Y0016842D01*
X0300000Y0017421D01*
X0299812Y0016842D01*
X0299441Y0016113D01*
X0298960Y0015452D01*
X0298382Y0014874D01*
X0297721Y0014394D01*
X0296993Y0014023D01*
X0296216Y0013770D01*
X0295492Y0013656D01*
X0295492Y0018342D01*
X0294508Y0018342D01*
X0294508Y0013656D01*
X0293784Y0013770D01*
X0293007Y0014023D01*
X0292279Y0014394D01*
X0291618Y0014874D01*
X0291040Y0015452D01*
X0290559Y0016113D01*
X0290188Y0016842D01*
X0290008Y0017398D01*
X0289388Y0015902D01*
X0287932Y0014446D01*
X0286030Y0013658D01*
X0283970Y0013658D01*
X0282068Y0014446D01*
X0280612Y0015902D01*
X0280000Y0017379D01*
X0279388Y0015902D01*
X0277932Y0014446D01*
X0276030Y0013658D01*
X0273970Y0013658D01*
X0272068Y0014446D01*
X0270612Y0015902D01*
X0270000Y0017379D01*
X0269388Y0015902D01*
X0267932Y0014446D01*
X0266030Y0013658D01*
X0263970Y0013658D01*
X0262068Y0014446D01*
X0260612Y0015902D01*
X0260000Y0017379D01*
X0259388Y0015902D01*
X0257932Y0014446D01*
X0256030Y0013658D01*
X0253970Y0013658D01*
X0252068Y0014446D01*
X0250612Y0015902D01*
X0250000Y0017379D01*
X0249388Y0015902D01*
X0247932Y0014446D01*
X0246030Y0013658D01*
X0243970Y0013658D01*
X0242068Y0014446D01*
X0240612Y0015902D01*
X0240000Y0017379D01*
X0239388Y0015902D01*
X0237932Y0014446D01*
X0236030Y0013658D01*
X0233970Y0013658D01*
X0232068Y0014446D01*
X0230612Y0015902D01*
X0230000Y0017379D01*
X0229388Y0015902D01*
X0227932Y0014446D01*
X0226030Y0013658D01*
X0223970Y0013658D01*
X0222068Y0014446D01*
X0220612Y0015902D01*
X0220000Y0017379D01*
X0219388Y0015902D01*
X0217932Y0014446D01*
X0216030Y0013658D01*
X0213970Y0013658D01*
X0212068Y0014446D01*
X0210612Y0015902D01*
X0210000Y0017379D01*
X0209388Y0015902D01*
X0207932Y0014446D01*
X0206030Y0013658D01*
X0203970Y0013658D01*
X0202068Y0014446D01*
X0200612Y0015902D01*
X0200000Y0017379D01*
X0199388Y0015902D01*
X0197932Y0014446D01*
X0196030Y0013658D01*
X0193970Y0013658D01*
X0192068Y0014446D01*
X0190612Y0015902D01*
X0190000Y0017379D01*
X0189388Y0015902D01*
X0187932Y0014446D01*
X0186030Y0013658D01*
X0183970Y0013658D01*
X0182068Y0014446D01*
X0180612Y0015902D01*
X0180000Y0017379D01*
X0179388Y0015902D01*
X0177932Y0014446D01*
X0176030Y0013658D01*
X0173970Y0013658D01*
X0172068Y0014446D01*
X0170612Y0015902D01*
X0170000Y0017379D01*
X0169388Y0015902D01*
X0167932Y0014446D01*
X0166030Y0013658D01*
X0163970Y0013658D01*
X0162068Y0014446D01*
X0160612Y0015902D01*
X0160000Y0017379D01*
X0159388Y0015902D01*
X0157932Y0014446D01*
X0156030Y0013658D01*
X0153970Y0013658D01*
X0152068Y0014446D01*
X0150612Y0015902D01*
X0150000Y0017379D01*
X0149388Y0015902D01*
X0147932Y0014446D01*
X0146030Y0013658D01*
X0143970Y0013658D01*
X0142068Y0014446D01*
X0140612Y0015902D01*
X0140000Y0017379D01*
X0139388Y0015902D01*
X0137932Y0014446D01*
X0136030Y0013658D01*
X0133970Y0013658D01*
X0132068Y0014446D01*
X0130612Y0015902D01*
X0130000Y0017379D01*
X0129388Y0015902D01*
X0127932Y0014446D01*
X0126030Y0013658D01*
X0123970Y0013658D01*
X0122068Y0014446D01*
X0120612Y0015902D01*
X0120000Y0017379D01*
X0119388Y0015902D01*
X0117932Y0014446D01*
X0116030Y0013658D01*
X0113970Y0013658D01*
X0112068Y0014446D01*
X0110612Y0015902D01*
X0110000Y0017379D01*
X0109388Y0015902D01*
X0107932Y0014446D01*
X0106030Y0013658D01*
X0103970Y0013658D01*
X0102068Y0014446D01*
X0100612Y0015902D01*
X0100000Y0017379D01*
X0099388Y0015902D01*
X0097932Y0014446D01*
X0096030Y0013658D01*
X0093970Y0013658D01*
X0092068Y0014446D01*
X0090612Y0015902D01*
X0090192Y0016915D01*
X0090192Y0014938D01*
X0090090Y0014559D01*
X0089894Y0014218D01*
X0089616Y0013941D01*
X0089276Y0013744D01*
X0088896Y0013643D01*
X0085492Y0013643D01*
X0085492Y0018342D01*
X0084508Y0018342D01*
X0084508Y0013643D01*
X0081104Y0013643D01*
X0080724Y0013744D01*
X0080384Y0013941D01*
X0080106Y0014218D01*
X0079910Y0014559D01*
X0079808Y0014938D01*
X0079808Y0018343D01*
X0084508Y0018343D01*
X0084508Y0019327D01*
X0084508Y0028342D01*
X0085492Y0028342D01*
X0085492Y0023656D01*
X0085492Y0019327D01*
X0084508Y0019327D01*
X0079808Y0019327D01*
X0079808Y0022731D01*
X0079910Y0023111D01*
X0080106Y0023451D01*
X0080384Y0023729D01*
X0080724Y0023925D01*
X0081104Y0024027D01*
X0082999Y0024027D01*
X0082279Y0024394D01*
X0081618Y0024874D01*
X0081040Y0025452D01*
X0080559Y0026113D01*
X0080188Y0026842D01*
X0079936Y0027619D01*
X0079821Y0028343D01*
X0084508Y0028343D01*
X0084508Y0029327D01*
X0084508Y0034014D01*
X0083784Y0033899D01*
X0083007Y0033646D01*
X0082279Y0033275D01*
X0081618Y0032795D01*
X0081040Y0032217D01*
X0080559Y0031556D01*
X0080188Y0030828D01*
X0079936Y0030050D01*
X0079821Y0029327D01*
X0084508Y0029327D01*
X0085492Y0029327D01*
X0085492Y0034014D01*
X0086216Y0033899D01*
X0086993Y0033646D01*
X0087721Y0033275D01*
X0088382Y0032795D01*
X0088960Y0032217D01*
X0089441Y0031556D01*
X0089812Y0030828D01*
X0089992Y0030272D01*
X0090612Y0031767D01*
X0092068Y0033223D01*
X0093970Y0034011D01*
X0096030Y0034011D01*
X0097932Y0033223D01*
X0099388Y0031767D01*
X0100000Y0030290D01*
X0100612Y0031767D01*
X0102068Y0033223D01*
X0103677Y0033889D01*
X0103425Y0034141D01*
X0103425Y0034141D01*
X0100641Y0036925D01*
X0100641Y0036925D01*
X0099488Y0038078D01*
X0099488Y0038078D01*
X0082925Y0054642D01*
X0071336Y0054642D01*
X0070710Y0054016D01*
X0069585Y0053550D01*
X0068368Y0053550D01*
X0067243Y0054016D01*
X0066382Y0054877D01*
X0065916Y0056001D01*
X0065916Y0057219D01*
X0066382Y0058344D01*
X0067243Y0059205D01*
X0068368Y0059671D01*
X0069585Y0059671D01*
X0070710Y0059205D01*
X0071336Y0058579D01*
X0084556Y0058579D01*
X0085709Y0057426D01*
X0085709Y0057426D01*
X0099488Y0043646D01*
X0099488Y0110575D01*
X0117518Y0128606D01*
X0115226Y0128606D01*
X0112428Y0131403D01*
X0112428Y0135360D01*
X0115226Y0138158D01*
X0119183Y0138158D01*
X0121142Y0136200D01*
X0123100Y0138158D01*
X0127057Y0138158D01*
X0129016Y0136200D01*
X0130974Y0138158D01*
X0134931Y0138158D01*
X0136879Y0136211D01*
X0138842Y0138174D01*
X0140519Y0138174D01*
X0140519Y0133690D01*
X0141135Y0133690D01*
X0145619Y0133690D01*
X0145619Y0135367D01*
X0142812Y0138174D01*
X0141135Y0138174D01*
X0141135Y0133690D01*
X0141135Y0133074D01*
X0145619Y0133074D01*
X0145619Y0131397D01*
X0142812Y0128590D01*
X0141135Y0128590D01*
X0141135Y0133074D01*
X0140519Y0133074D01*
X0140519Y0128590D01*
X0138842Y0128590D01*
X0136879Y0130553D01*
X0134931Y0128606D01*
X0130974Y0128606D01*
X0130967Y0128613D01*
X0105394Y0103039D01*
X0105394Y0084169D01*
X0142303Y0084169D01*
X0142303Y0118123D01*
X0142678Y0119028D01*
X0143370Y0119720D01*
X0155735Y0132085D01*
X0155735Y0135360D01*
X0158533Y0138158D01*
X0162490Y0138158D01*
X0164449Y0136200D01*
X0166407Y0138158D01*
X0170364Y0138158D01*
X0173162Y0135360D01*
X0173162Y0131403D01*
X0170364Y0128606D01*
X0167089Y0128606D01*
X0151161Y0112678D01*
X0151161Y0084169D01*
X0392303Y0084169D01*
X0392303Y0117599D01*
X0389808Y0120094D01*
X0365559Y0120094D01*
X0368896Y0116757D01*
X0369782Y0116757D01*
X0370907Y0116292D01*
X0371768Y0115431D01*
X0372234Y0114306D01*
X0372234Y0113088D01*
X0371768Y0111963D01*
X0370907Y0111102D01*
X0369782Y0110636D01*
X0368564Y0110636D01*
X0367440Y0111102D01*
X0366579Y0111963D01*
X0366113Y0113088D01*
X0366113Y0113974D01*
X0362452Y0117634D01*
X0288296Y0117634D01*
X0290264Y0115665D01*
X0331380Y0115665D01*
X0332006Y0116292D01*
X0333131Y0116757D01*
X0334349Y0116757D01*
X0335474Y0116292D01*
X0336335Y0115431D01*
X0336801Y0114306D01*
X0336801Y0113088D01*
X0336335Y0111963D01*
X0335474Y0111102D01*
X0334349Y0110636D01*
X0333131Y0110636D01*
X0332006Y0111102D01*
X0331380Y0111728D01*
X0288633Y0111728D01*
X0205956Y0194406D01*
X0159359Y0194406D01*
X0157667Y0192714D01*
X0157667Y0191828D01*
X0157201Y0190703D01*
X0156340Y0189842D01*
X0155215Y0189376D01*
X0153997Y0189376D01*
X0152873Y0189842D01*
X0152012Y0190703D01*
X0151546Y0191828D01*
X0151546Y0193046D01*
X0151735Y0193503D01*
X0151278Y0193313D01*
X0150060Y0193313D01*
X0148936Y0193779D01*
X0148075Y0194640D01*
X0147609Y0195765D01*
X0147609Y0196983D01*
X0148075Y0198108D01*
X0148309Y0198343D01*
X0132708Y0198343D01*
X0131555Y0199496D01*
X0126993Y0204057D01*
X0126030Y0203658D01*
X0123970Y0203658D01*
X0122068Y0204446D01*
X0120612Y0205902D01*
X0120000Y0207379D01*
X0119388Y0205902D01*
X0117932Y0204446D01*
X0116030Y0203658D01*
X0113970Y0203658D01*
X0112068Y0204446D01*
X0110612Y0205902D01*
X0110000Y0207379D01*
X0109388Y0205902D01*
X0107932Y0204446D01*
X0106030Y0203658D01*
X0103970Y0203658D01*
X0102068Y0204446D01*
X0100612Y0205902D01*
X0100000Y0207379D01*
X0099388Y0205902D01*
X0097932Y0204446D01*
X0096030Y0203658D01*
X0093970Y0203658D01*
X0092068Y0204446D01*
X0090612Y0205902D01*
X0090192Y0206915D01*
X0090192Y0204938D01*
X0090090Y0204559D01*
X0089894Y0204218D01*
X0089616Y0203941D01*
X0089276Y0203744D01*
X0088896Y0203643D01*
X0085492Y0203643D01*
X0085492Y0208342D01*
X0084508Y0208342D01*
X0084508Y0203643D01*
X0081104Y0203643D01*
X0080724Y0203744D01*
X0080384Y0203941D01*
X0080106Y0204218D01*
X0079910Y0204559D01*
X0079808Y0204938D01*
X0079808Y0208343D01*
X0084508Y0208343D01*
X0084508Y0209327D01*
X0084508Y0218342D01*
X0085492Y0218342D01*
X0085492Y0213656D01*
X0085492Y0209327D01*
X0084508Y0209327D01*
X0079808Y0209327D01*
X0079808Y0212731D01*
X0079910Y0213111D01*
X0080106Y0213451D01*
X0080384Y0213729D01*
X0080724Y0213925D01*
X0081104Y0214027D01*
X0082999Y0214027D01*
X0082279Y0214394D01*
X0081618Y0214874D01*
X0081040Y0215452D01*
X0080559Y0216113D01*
X0080188Y0216842D01*
X0079936Y0217619D01*
X0079821Y0218343D01*
X0084508Y0218343D01*
X0084508Y0219327D01*
X0084508Y0224014D01*
X0083784Y0223899D01*
X0083007Y0223646D01*
X0082279Y0223275D01*
X0081618Y0222795D01*
X0081040Y0222217D01*
X0080559Y0221556D01*
X0080188Y0220828D01*
X0079936Y0220050D01*
X0079821Y0219327D01*
X0084508Y0219327D01*
X0085492Y0219327D01*
X0085492Y0224014D01*
X0086216Y0223899D01*
X0086993Y0223646D01*
X0087721Y0223275D01*
X0088382Y0222795D01*
X0088960Y0222217D01*
X0089441Y0221556D01*
X0089812Y0220828D01*
X0089992Y0220272D01*
X0090612Y0221767D01*
X0092068Y0223223D01*
X0093970Y0224011D01*
X0096030Y0224011D01*
X0097932Y0223223D01*
X0099388Y0221767D01*
X0100000Y0220290D01*
X0100612Y0221767D01*
X0102068Y0223223D01*
X0103970Y0224011D01*
X0106030Y0224011D01*
X0107932Y0223223D01*
X0109388Y0221767D01*
X0110000Y0220290D01*
X0110612Y0221767D01*
X0112068Y0223223D01*
X0113970Y0224011D01*
X0116030Y0224011D01*
X0116993Y0223612D01*
X0125189Y0231807D01*
X0326682Y0231807D01*
X0343306Y0215183D01*
X0344191Y0215183D01*
X0345316Y0214717D01*
X0346177Y0213856D01*
X0346643Y0212731D01*
X0346643Y0211513D01*
X0346177Y0210388D01*
X0345316Y0209527D01*
X0344191Y0209061D01*
X0342974Y0209061D01*
X0341849Y0209527D01*
X0340988Y0210388D01*
X0340630Y0211253D01*
X0340272Y0210388D01*
X0339411Y0209527D01*
X0338286Y0209061D01*
X0337068Y0209061D01*
X0335943Y0209527D01*
X0335709Y0209762D01*
X0335709Y0209762D01*
X0335709Y0209338D01*
X0328650Y0202280D01*
X0348673Y0202280D01*
X0356759Y0210366D01*
X0356736Y0210388D01*
X0356270Y0211513D01*
X0356270Y0212731D01*
X0356736Y0213856D01*
X0357597Y0214717D01*
X0358722Y0215183D01*
X0359940Y0215183D01*
X0361064Y0214717D01*
X0361925Y0213856D01*
X0362391Y0212731D01*
X0362391Y0211513D01*
X0361925Y0210388D01*
X0361299Y0209762D01*
X0361299Y0209338D01*
X0350304Y0198343D01*
X0210540Y0198343D01*
X0279751Y0129131D01*
X0279751Y0131423D01*
X0282549Y0134221D01*
X0286506Y0134221D01*
X0288465Y0132263D01*
X0289941Y0133739D01*
X0289941Y0146300D01*
X0289482Y0146759D01*
X0289704Y0146223D01*
X0289704Y0144163D01*
X0288916Y0142261D01*
X0287460Y0140805D01*
X0285557Y0140017D01*
X0283498Y0140017D01*
X0281595Y0140805D01*
X0280139Y0142261D01*
X0279351Y0144163D01*
X0279351Y0146223D01*
X0280139Y0148125D01*
X0281595Y0149581D01*
X0283072Y0150193D01*
X0281595Y0150805D01*
X0280139Y0152261D01*
X0279351Y0154163D01*
X0279351Y0156223D01*
X0280139Y0158125D01*
X0281595Y0159581D01*
X0283072Y0160193D01*
X0281595Y0160805D01*
X0280139Y0162261D01*
X0279351Y0164163D01*
X0279351Y0166223D01*
X0280139Y0168125D01*
X0281595Y0169581D01*
X0283498Y0170369D01*
X0285557Y0170369D01*
X0287460Y0169581D01*
X0288916Y0168125D01*
X0289704Y0166223D01*
X0289704Y0164163D01*
X0289482Y0163627D01*
X0316441Y0190586D01*
X0317345Y0190961D01*
X0322030Y0190961D01*
X0322164Y0191095D01*
X0323289Y0191561D01*
X0324506Y0191561D01*
X0325631Y0191095D01*
X0326492Y0190234D01*
X0326850Y0189369D01*
X0327208Y0190234D01*
X0328069Y0191095D01*
X0329194Y0191561D01*
X0330412Y0191561D01*
X0331537Y0191095D01*
X0332398Y0190234D01*
X0332756Y0189369D01*
X0333114Y0190234D01*
X0333975Y0191095D01*
X0335100Y0191561D01*
X0336317Y0191561D01*
X0337442Y0191095D01*
X0338303Y0190234D01*
X0338661Y0189369D01*
X0339020Y0190234D01*
X0339880Y0191095D01*
X0341005Y0191561D01*
X0342223Y0191561D01*
X0343348Y0191095D01*
X0344209Y0190234D01*
X0344567Y0189369D01*
X0344925Y0190234D01*
X0345786Y0191095D01*
X0346911Y0191561D01*
X0348128Y0191561D01*
X0349253Y0191095D01*
X0350114Y0190234D01*
X0350472Y0189369D01*
X0350831Y0190234D01*
X0351691Y0191095D01*
X0352816Y0191561D01*
X0354034Y0191561D01*
X0355159Y0191095D01*
X0356020Y0190234D01*
X0356486Y0189109D01*
X0356486Y0188833D01*
X0377776Y0166123D01*
X0377776Y0166223D01*
X0378564Y0168125D01*
X0380021Y0169581D01*
X0381923Y0170369D01*
X0383982Y0170369D01*
X0385885Y0169581D01*
X0387341Y0168125D01*
X0388129Y0166223D01*
X0388129Y0164163D01*
X0387341Y0162261D01*
X0385885Y0160805D01*
X0384408Y0160193D01*
X0385885Y0159581D01*
X0387341Y0158125D01*
X0388129Y0156223D01*
X0388129Y0154163D01*
X0387341Y0152261D01*
X0385885Y0150805D01*
X0384408Y0150193D01*
X0385885Y0149581D01*
X0387341Y0148125D01*
X0388129Y0146223D01*
X0388129Y0144163D01*
X0387341Y0142261D01*
X0385885Y0140805D01*
X0383982Y0140017D01*
X0381923Y0140017D01*
X0380021Y0140805D01*
X0378564Y0142261D01*
X0377776Y0144163D01*
X0377776Y0146223D01*
X0377999Y0146759D01*
X0369665Y0138426D01*
X0369665Y0133739D01*
X0371131Y0132274D01*
X0373094Y0134237D01*
X0374771Y0134237D01*
X0374771Y0129753D01*
X0375387Y0129753D01*
X0382645Y0129753D01*
X0382645Y0134237D01*
X0380968Y0134237D01*
X0379016Y0132285D01*
X0377064Y0134237D01*
X0375387Y0134237D01*
X0375387Y0129753D01*
X0375387Y0129137D01*
X0378161Y0129137D01*
X0382645Y0129137D01*
X0382645Y0129753D01*
X0383261Y0129753D01*
X0387745Y0129753D01*
X0387745Y0131430D01*
X0384938Y0134237D01*
X0383261Y0134237D01*
X0383261Y0129753D01*
X0383261Y0129137D01*
X0387745Y0129137D01*
X0387745Y0127460D01*
X0385301Y0125016D01*
X0391316Y0125016D01*
X0392221Y0124641D01*
X0392913Y0123949D01*
X0396850Y0120012D01*
X0397209Y0119146D01*
X0397209Y0236220D01*
X0061610Y0236220D01*
X0061610Y0166370D01*
X0079306Y0166370D01*
X0082025Y0165244D01*
X0082025Y0165244D01*
X0084106Y0163163D01*
X0084106Y0163163D01*
X0085232Y0160444D01*
X0085232Y0098446D01*
X0084106Y0095727D01*
X0084106Y0095727D01*
X0082025Y0093646D01*
X0082025Y0093646D01*
X0079306Y0092520D01*
X0006492Y0092520D01*
X0006492Y0091906D02*
X0099488Y0091906D01*
X0099488Y0090924D02*
X0006492Y0090924D01*
X0006492Y0089941D02*
X0099488Y0089941D01*
X0099488Y0088958D02*
X0006492Y0088958D01*
X0006492Y0087975D02*
X0099488Y0087975D01*
X0099488Y0086993D02*
X0006492Y0086993D01*
X0006492Y0086010D02*
X0099488Y0086010D01*
X0099488Y0085027D02*
X0006492Y0085027D01*
X0006492Y0084044D02*
X0099488Y0084044D01*
X0099488Y0083061D02*
X0006492Y0083061D01*
X0006492Y0082079D02*
X0099488Y0082079D01*
X0099488Y0081096D02*
X0006492Y0081096D01*
X0006492Y0080113D02*
X0099488Y0080113D01*
X0099488Y0079130D02*
X0006492Y0079130D01*
X0006492Y0078148D02*
X0099488Y0078148D01*
X0099488Y0077165D02*
X0006492Y0077165D01*
X0006492Y0076182D02*
X0099488Y0076182D01*
X0099488Y0075199D02*
X0006492Y0075199D01*
X0006492Y0074217D02*
X0099488Y0074217D01*
X0099488Y0073234D02*
X0006492Y0073234D01*
X0006492Y0072251D02*
X0099488Y0072251D01*
X0099488Y0071268D02*
X0006492Y0071268D01*
X0006492Y0070286D02*
X0099488Y0070286D01*
X0099488Y0069303D02*
X0006492Y0069303D01*
X0006492Y0068320D02*
X0099488Y0068320D01*
X0099488Y0067337D02*
X0006492Y0067337D01*
X0006492Y0066355D02*
X0099488Y0066355D01*
X0099488Y0065372D02*
X0006492Y0065372D01*
X0006492Y0064389D02*
X0099488Y0064389D01*
X0099488Y0063406D02*
X0006492Y0063406D01*
X0006492Y0062423D02*
X0099488Y0062423D01*
X0099488Y0061441D02*
X0006492Y0061441D01*
X0006492Y0060458D02*
X0099488Y0060458D01*
X0099488Y0059475D02*
X0070058Y0059475D01*
X0067895Y0059475D02*
X0006492Y0059475D01*
X0006492Y0058492D02*
X0066530Y0058492D01*
X0066036Y0057510D02*
X0006492Y0057510D01*
X0006492Y0056527D02*
X0065916Y0056527D01*
X0066105Y0055544D02*
X0006492Y0055544D01*
X0006492Y0054561D02*
X0066697Y0054561D01*
X0068298Y0053579D02*
X0006492Y0053579D01*
X0006492Y0052596D02*
X0084971Y0052596D01*
X0085953Y0051613D02*
X0006492Y0051613D01*
X0006492Y0050630D02*
X0086936Y0050630D01*
X0087919Y0049648D02*
X0006492Y0049648D01*
X0006492Y0048665D02*
X0088902Y0048665D01*
X0089885Y0047682D02*
X0006492Y0047682D01*
X0006492Y0046699D02*
X0090867Y0046699D01*
X0091850Y0045716D02*
X0066177Y0045716D01*
X0067819Y0044734D02*
X0092833Y0044734D01*
X0093816Y0043751D02*
X0068776Y0043751D01*
X0069183Y0042768D02*
X0094798Y0042768D01*
X0095781Y0041785D02*
X0069546Y0041785D01*
X0069546Y0040803D02*
X0096764Y0040803D01*
X0097747Y0039820D02*
X0069541Y0039820D01*
X0069134Y0038837D02*
X0098729Y0038837D01*
X0099712Y0037854D02*
X0068683Y0037854D01*
X0067700Y0036872D02*
X0100695Y0036872D01*
X0101678Y0035889D02*
X0065890Y0035889D01*
X0062850Y0035889D02*
X0056831Y0035889D01*
X0057700Y0036872D02*
X0061040Y0036872D01*
X0060057Y0037854D02*
X0058683Y0037854D01*
X0059134Y0038837D02*
X0059606Y0038837D01*
X0059557Y0042768D02*
X0059183Y0042768D01*
X0058776Y0043751D02*
X0059964Y0043751D01*
X0060921Y0044734D02*
X0057819Y0044734D01*
X0056177Y0045716D02*
X0062563Y0045716D01*
X0052563Y0045716D02*
X0046177Y0045716D01*
X0047819Y0044734D02*
X0050921Y0044734D01*
X0049964Y0043751D02*
X0048776Y0043751D01*
X0049183Y0042768D02*
X0049557Y0042768D01*
X0049606Y0038837D02*
X0049134Y0038837D01*
X0048683Y0037854D02*
X0050057Y0037854D01*
X0051040Y0036872D02*
X0047700Y0036872D01*
X0045890Y0035889D02*
X0051909Y0035889D01*
X0051909Y0034906D02*
X0006492Y0034906D01*
X0006492Y0033923D02*
X0052070Y0033923D01*
X0052749Y0032941D02*
X0006492Y0032941D01*
X0006492Y0031958D02*
X0053732Y0031958D01*
X0054714Y0030975D02*
X0006492Y0030975D01*
X0006492Y0029992D02*
X0055697Y0029992D01*
X0056680Y0029009D02*
X0006492Y0029009D01*
X0006492Y0028027D02*
X0069474Y0028027D01*
X0070456Y0027044D02*
X0006492Y0027044D01*
X0006492Y0026061D02*
X0071437Y0026061D01*
X0071437Y0025078D02*
X0006492Y0025078D01*
X0006492Y0024096D02*
X0071437Y0024096D01*
X0071437Y0023113D02*
X0006492Y0023113D01*
X0006492Y0022130D02*
X0071437Y0022130D01*
X0071437Y0021147D02*
X0006492Y0021147D01*
X0006492Y0020165D02*
X0039753Y0020165D01*
X0039754Y0020166D02*
X0039476Y0019888D01*
X0039280Y0019548D01*
X0039178Y0019168D01*
X0039178Y0015764D01*
X0043878Y0015764D01*
X0043878Y0020464D01*
X0040474Y0020464D01*
X0040094Y0020362D01*
X0039754Y0020166D01*
X0039182Y0019182D02*
X0027530Y0019182D01*
X0026663Y0020048D02*
X0022707Y0020048D01*
X0020759Y0018101D01*
X0018796Y0020064D01*
X0017119Y0020064D01*
X0017119Y0015580D01*
X0016503Y0015580D01*
X0016503Y0020064D01*
X0014826Y0020064D01*
X0012019Y0017257D01*
X0012019Y0015580D01*
X0016503Y0015580D01*
X0016503Y0014964D01*
X0012019Y0014964D01*
X0012019Y0013287D01*
X0014826Y0010480D01*
X0016503Y0010480D01*
X0016503Y0014964D01*
X0017119Y0014964D01*
X0017119Y0010480D01*
X0018796Y0010480D01*
X0020759Y0012443D01*
X0022707Y0010495D01*
X0026663Y0010495D01*
X0029461Y0013293D01*
X0029461Y0017250D01*
X0026663Y0020048D01*
X0028512Y0018199D02*
X0039178Y0018199D01*
X0039178Y0017216D02*
X0029461Y0017216D01*
X0029461Y0016234D02*
X0039178Y0016234D01*
X0039178Y0014780D02*
X0039178Y0011375D01*
X0039280Y0010996D01*
X0039476Y0010655D01*
X0039754Y0010378D01*
X0040094Y0010181D01*
X0040474Y0010080D01*
X0043878Y0010080D01*
X0043878Y0014779D01*
X0044862Y0014779D01*
X0044862Y0010080D01*
X0048267Y0010080D01*
X0048646Y0010181D01*
X0048986Y0010378D01*
X0049264Y0010655D01*
X0049461Y0010996D01*
X0049562Y0011375D01*
X0049562Y0013352D01*
X0049982Y0012339D01*
X0051438Y0010883D01*
X0053340Y0010095D01*
X0055400Y0010095D01*
X0057302Y0010883D01*
X0058758Y0012339D01*
X0059370Y0013816D01*
X0059982Y0012339D01*
X0061438Y0010883D01*
X0063340Y0010095D01*
X0065400Y0010095D01*
X0067302Y0010883D01*
X0068758Y0012339D01*
X0069546Y0014242D01*
X0069546Y0016301D01*
X0068758Y0018204D01*
X0067302Y0019660D01*
X0065400Y0020448D01*
X0063340Y0020448D01*
X0061438Y0019660D01*
X0059982Y0018204D01*
X0059370Y0016727D01*
X0058758Y0018204D01*
X0057302Y0019660D01*
X0055400Y0020448D01*
X0053340Y0020448D01*
X0051438Y0019660D01*
X0049982Y0018204D01*
X0049562Y0017191D01*
X0049562Y0019168D01*
X0049461Y0019548D01*
X0049264Y0019888D01*
X0048986Y0020166D01*
X0048646Y0020362D01*
X0048267Y0020464D01*
X0044862Y0020464D01*
X0044862Y0015764D01*
X0043878Y0015764D01*
X0043878Y0014780D01*
X0039178Y0014780D01*
X0039178Y0014268D02*
X0029461Y0014268D01*
X0029453Y0013285D02*
X0039178Y0013285D01*
X0039178Y0012303D02*
X0028471Y0012303D01*
X0027488Y0011320D02*
X0039193Y0011320D01*
X0039824Y0010337D02*
X0006492Y0010337D01*
X0006492Y0011320D02*
X0013986Y0011320D01*
X0013003Y0012303D02*
X0006492Y0012303D01*
X0006492Y0013285D02*
X0012020Y0013285D01*
X0012019Y0014268D02*
X0006492Y0014268D01*
X0006492Y0015251D02*
X0016503Y0015251D01*
X0016503Y0016234D02*
X0017119Y0016234D01*
X0017119Y0017216D02*
X0016503Y0017216D01*
X0016503Y0018199D02*
X0017119Y0018199D01*
X0017119Y0019182D02*
X0016503Y0019182D01*
X0013944Y0019182D02*
X0006492Y0019182D01*
X0006492Y0018199D02*
X0012961Y0018199D01*
X0012019Y0017216D02*
X0006492Y0017216D01*
X0006492Y0016234D02*
X0012019Y0016234D01*
X0016503Y0014268D02*
X0017119Y0014268D01*
X0017119Y0013285D02*
X0016503Y0013285D01*
X0016503Y0012303D02*
X0017119Y0012303D01*
X0017119Y0011320D02*
X0016503Y0011320D01*
X0019636Y0011320D02*
X0021882Y0011320D01*
X0020899Y0012303D02*
X0020619Y0012303D01*
X0020661Y0018199D02*
X0020858Y0018199D01*
X0021840Y0019182D02*
X0019678Y0019182D01*
X0029461Y0015251D02*
X0043878Y0015251D01*
X0043878Y0016234D02*
X0044862Y0016234D01*
X0044862Y0017216D02*
X0043878Y0017216D01*
X0043878Y0018199D02*
X0044862Y0018199D01*
X0044862Y0019182D02*
X0043878Y0019182D01*
X0043878Y0020165D02*
X0044862Y0020165D01*
X0048987Y0020165D02*
X0052656Y0020165D01*
X0050960Y0019182D02*
X0049559Y0019182D01*
X0049562Y0018199D02*
X0049980Y0018199D01*
X0049573Y0017216D02*
X0049562Y0017216D01*
X0049562Y0013285D02*
X0049590Y0013285D01*
X0049562Y0012303D02*
X0050019Y0012303D01*
X0049547Y0011320D02*
X0051001Y0011320D01*
X0052757Y0010337D02*
X0048916Y0010337D01*
X0044862Y0010337D02*
X0043878Y0010337D01*
X0043878Y0011320D02*
X0044862Y0011320D01*
X0044862Y0012303D02*
X0043878Y0012303D01*
X0043878Y0013285D02*
X0044862Y0013285D01*
X0044862Y0014268D02*
X0043878Y0014268D01*
X0055983Y0010337D02*
X0062757Y0010337D01*
X0061001Y0011320D02*
X0057739Y0011320D01*
X0058721Y0012303D02*
X0060019Y0012303D01*
X0059590Y0013285D02*
X0059150Y0013285D01*
X0059167Y0017216D02*
X0059573Y0017216D01*
X0059980Y0018199D02*
X0058760Y0018199D01*
X0057780Y0019182D02*
X0060960Y0019182D01*
X0062656Y0020165D02*
X0056084Y0020165D01*
X0066084Y0020165D02*
X0071437Y0020165D01*
X0071437Y0019182D02*
X0067780Y0019182D01*
X0068760Y0018199D02*
X0071437Y0018199D01*
X0071437Y0017216D02*
X0069167Y0017216D01*
X0069546Y0016234D02*
X0071437Y0016234D01*
X0071437Y0015251D02*
X0069546Y0015251D01*
X0069546Y0014268D02*
X0071437Y0014268D01*
X0071437Y0013285D02*
X0069150Y0013285D01*
X0068721Y0012303D02*
X0071437Y0012303D01*
X0071437Y0011320D02*
X0067739Y0011320D01*
X0065983Y0010337D02*
X0071648Y0010337D01*
X0072398Y0009354D02*
X0006492Y0009354D01*
X0006492Y0008371D02*
X0073381Y0008371D01*
X0074364Y0007389D02*
X0006492Y0007389D01*
X0006492Y0006406D02*
X0075346Y0006406D01*
X0076329Y0005423D02*
X0006492Y0005423D01*
X0006492Y0004440D02*
X0317992Y0004440D01*
X0317992Y0003458D02*
X0006492Y0003458D01*
X0057743Y0034906D02*
X0102660Y0034906D01*
X0103643Y0033923D02*
X0096241Y0033923D01*
X0098215Y0032941D02*
X0101785Y0032941D01*
X0100803Y0031958D02*
X0099197Y0031958D01*
X0099716Y0030975D02*
X0100284Y0030975D01*
X0105394Y0034957D02*
X0083740Y0056610D01*
X0068976Y0056610D01*
X0071256Y0054561D02*
X0083005Y0054561D01*
X0083988Y0053579D02*
X0069655Y0053579D01*
X0084642Y0058492D02*
X0099488Y0058492D01*
X0099488Y0057510D02*
X0085625Y0057510D01*
X0086607Y0056527D02*
X0099488Y0056527D01*
X0099488Y0055544D02*
X0087590Y0055544D01*
X0088573Y0054561D02*
X0099488Y0054561D01*
X0099488Y0053579D02*
X0089556Y0053579D01*
X0090538Y0052596D02*
X0099488Y0052596D01*
X0099488Y0051613D02*
X0091521Y0051613D01*
X0092504Y0050630D02*
X0099488Y0050630D01*
X0099488Y0049648D02*
X0093487Y0049648D01*
X0094469Y0048665D02*
X0099488Y0048665D01*
X0099488Y0047682D02*
X0095452Y0047682D01*
X0096435Y0046699D02*
X0099488Y0046699D01*
X0099488Y0045716D02*
X0097418Y0045716D01*
X0098401Y0044734D02*
X0099488Y0044734D01*
X0099488Y0043751D02*
X0099383Y0043751D01*
X0101457Y0041846D02*
X0101457Y0109760D01*
X0125079Y0133382D01*
X0128102Y0137113D02*
X0129930Y0137113D01*
X0130912Y0138096D02*
X0127119Y0138096D01*
X0123038Y0138096D02*
X0119245Y0138096D01*
X0120228Y0137113D02*
X0122055Y0137113D01*
X0115164Y0138096D02*
X0085232Y0138096D01*
X0085232Y0137113D02*
X0114181Y0137113D01*
X0113199Y0136131D02*
X0085232Y0136131D01*
X0085232Y0135148D02*
X0112428Y0135148D01*
X0112428Y0134165D02*
X0085232Y0134165D01*
X0085232Y0133182D02*
X0112428Y0133182D01*
X0112428Y0132200D02*
X0085232Y0132200D01*
X0085232Y0131217D02*
X0112615Y0131217D01*
X0113598Y0130234D02*
X0085232Y0130234D01*
X0085232Y0129251D02*
X0114580Y0129251D01*
X0116199Y0127286D02*
X0085232Y0127286D01*
X0085232Y0128269D02*
X0117182Y0128269D01*
X0115216Y0126303D02*
X0085232Y0126303D01*
X0085232Y0125320D02*
X0114233Y0125320D01*
X0113251Y0124338D02*
X0085232Y0124338D01*
X0085232Y0123355D02*
X0112268Y0123355D01*
X0111285Y0122372D02*
X0085232Y0122372D01*
X0085232Y0121389D02*
X0110302Y0121389D01*
X0109319Y0120406D02*
X0085232Y0120406D01*
X0085232Y0119424D02*
X0108337Y0119424D01*
X0107354Y0118441D02*
X0085232Y0118441D01*
X0085232Y0117458D02*
X0106371Y0117458D01*
X0105388Y0116475D02*
X0085232Y0116475D01*
X0085232Y0115493D02*
X0104406Y0115493D01*
X0103423Y0114510D02*
X0085232Y0114510D01*
X0085232Y0113527D02*
X0102440Y0113527D01*
X0101457Y0112544D02*
X0085232Y0112544D01*
X0085232Y0111562D02*
X0100475Y0111562D01*
X0099492Y0110579D02*
X0085232Y0110579D01*
X0085232Y0109596D02*
X0099488Y0109596D01*
X0099488Y0108613D02*
X0085232Y0108613D01*
X0085232Y0107631D02*
X0099488Y0107631D01*
X0099488Y0106648D02*
X0085232Y0106648D01*
X0085232Y0105665D02*
X0099488Y0105665D01*
X0099488Y0104682D02*
X0085232Y0104682D01*
X0085232Y0103700D02*
X0099488Y0103700D01*
X0099488Y0102717D02*
X0085232Y0102717D01*
X0085232Y0101734D02*
X0099488Y0101734D01*
X0099488Y0100751D02*
X0085232Y0100751D01*
X0085232Y0099768D02*
X0099488Y0099768D01*
X0099488Y0098786D02*
X0085232Y0098786D01*
X0084966Y0097803D02*
X0099488Y0097803D01*
X0099488Y0096820D02*
X0084559Y0096820D01*
X0084152Y0095837D02*
X0099488Y0095837D01*
X0099488Y0094855D02*
X0083234Y0094855D01*
X0082251Y0093872D02*
X0099488Y0093872D01*
X0099488Y0092889D02*
X0080198Y0092889D01*
X0103425Y0103854D02*
X0132953Y0133382D01*
X0136560Y0130234D02*
X0137197Y0130234D01*
X0138180Y0129251D02*
X0135577Y0129251D01*
X0130623Y0128269D02*
X0151919Y0128269D01*
X0152901Y0129251D02*
X0143473Y0129251D01*
X0144456Y0130234D02*
X0153884Y0130234D01*
X0154867Y0131217D02*
X0145439Y0131217D01*
X0145619Y0132200D02*
X0155735Y0132200D01*
X0155735Y0133182D02*
X0141135Y0133182D01*
X0141135Y0132200D02*
X0140519Y0132200D01*
X0140519Y0131217D02*
X0141135Y0131217D01*
X0141135Y0130234D02*
X0140519Y0130234D01*
X0140519Y0129251D02*
X0141135Y0129251D01*
X0141135Y0134165D02*
X0140519Y0134165D01*
X0140519Y0135148D02*
X0141135Y0135148D01*
X0141135Y0136131D02*
X0140519Y0136131D01*
X0140519Y0137113D02*
X0141135Y0137113D01*
X0141135Y0138096D02*
X0140519Y0138096D01*
X0138764Y0138096D02*
X0134993Y0138096D01*
X0135976Y0137113D02*
X0137781Y0137113D01*
X0142890Y0138096D02*
X0158471Y0138096D01*
X0157489Y0137113D02*
X0143872Y0137113D01*
X0144855Y0136131D02*
X0156506Y0136131D01*
X0155735Y0135148D02*
X0145619Y0135148D01*
X0145619Y0134165D02*
X0155735Y0134165D01*
X0162552Y0138096D02*
X0166345Y0138096D01*
X0165363Y0137113D02*
X0163535Y0137113D01*
X0170426Y0138096D02*
X0184626Y0138096D01*
X0184626Y0137113D02*
X0171409Y0137113D01*
X0172392Y0136131D02*
X0184065Y0136131D01*
X0184626Y0136692D02*
X0183294Y0135360D01*
X0183294Y0131403D01*
X0186092Y0128606D01*
X0190049Y0128606D01*
X0192008Y0130564D01*
X0193966Y0128606D01*
X0197923Y0128606D01*
X0199882Y0130564D01*
X0201840Y0128606D01*
X0205797Y0128606D01*
X0207745Y0130553D01*
X0209708Y0128590D01*
X0211385Y0128590D01*
X0211385Y0133074D01*
X0212001Y0133074D01*
X0212001Y0133690D01*
X0211385Y0133690D01*
X0211385Y0138174D01*
X0209708Y0138174D01*
X0207745Y0136211D01*
X0205797Y0138158D01*
X0205787Y0138158D01*
X0205787Y0164487D01*
X0206414Y0165113D01*
X0206880Y0166238D01*
X0206880Y0167455D01*
X0206414Y0168580D01*
X0205553Y0169441D01*
X0204428Y0169907D01*
X0203210Y0169907D01*
X0202085Y0169441D01*
X0201224Y0168580D01*
X0200758Y0167455D01*
X0200758Y0166238D01*
X0201224Y0165113D01*
X0201850Y0164487D01*
X0201850Y0138158D01*
X0201840Y0138158D01*
X0199882Y0136200D01*
X0197923Y0138158D01*
X0193966Y0138158D01*
X0192008Y0136200D01*
X0191516Y0136692D01*
X0191516Y0161483D01*
X0206739Y0176706D01*
X0207264Y0177972D01*
X0207264Y0179343D01*
X0206739Y0180609D01*
X0205770Y0181578D01*
X0204504Y0182102D01*
X0203134Y0182102D01*
X0201868Y0181578D01*
X0185150Y0164861D01*
X0184626Y0163595D01*
X0184626Y0136692D01*
X0183294Y0135148D02*
X0173162Y0135148D01*
X0173162Y0134165D02*
X0183294Y0134165D01*
X0183294Y0133182D02*
X0173162Y0133182D01*
X0173162Y0132200D02*
X0183294Y0132200D01*
X0183481Y0131217D02*
X0172976Y0131217D01*
X0171993Y0130234D02*
X0184464Y0130234D01*
X0185447Y0129251D02*
X0171010Y0129251D01*
X0166752Y0128269D02*
X0272093Y0128269D01*
X0271110Y0129251D02*
X0214339Y0129251D01*
X0213678Y0128590D02*
X0212001Y0128590D01*
X0212001Y0133074D01*
X0216485Y0133074D01*
X0216485Y0131397D01*
X0213678Y0128590D01*
X0212001Y0129251D02*
X0211385Y0129251D01*
X0211385Y0130234D02*
X0212001Y0130234D01*
X0212001Y0131217D02*
X0211385Y0131217D01*
X0211385Y0132200D02*
X0212001Y0132200D01*
X0212001Y0133182D02*
X0267179Y0133182D01*
X0268162Y0132200D02*
X0216485Y0132200D01*
X0216305Y0131217D02*
X0269145Y0131217D01*
X0270128Y0130234D02*
X0215322Y0130234D01*
X0216485Y0133690D02*
X0212001Y0133690D01*
X0212001Y0138174D01*
X0213678Y0138174D01*
X0216485Y0135367D01*
X0216485Y0133690D01*
X0216485Y0134165D02*
X0266197Y0134165D01*
X0265214Y0135148D02*
X0216485Y0135148D01*
X0215721Y0136131D02*
X0264231Y0136131D01*
X0263248Y0137113D02*
X0214738Y0137113D01*
X0213756Y0138096D02*
X0262266Y0138096D01*
X0261283Y0139079D02*
X0205787Y0139079D01*
X0205787Y0140062D02*
X0260300Y0140062D01*
X0259317Y0141045D02*
X0205787Y0141045D01*
X0205787Y0142027D02*
X0258334Y0142027D01*
X0257352Y0143010D02*
X0205787Y0143010D01*
X0205787Y0143993D02*
X0256369Y0143993D01*
X0255386Y0144976D02*
X0205787Y0144976D01*
X0205787Y0145958D02*
X0254403Y0145958D01*
X0253421Y0146941D02*
X0205787Y0146941D01*
X0205787Y0147924D02*
X0252438Y0147924D01*
X0251455Y0148907D02*
X0205787Y0148907D01*
X0205787Y0149889D02*
X0250472Y0149889D01*
X0249490Y0150872D02*
X0205787Y0150872D01*
X0205787Y0151855D02*
X0248507Y0151855D01*
X0247524Y0152838D02*
X0205787Y0152838D01*
X0205787Y0153820D02*
X0246541Y0153820D01*
X0245559Y0154803D02*
X0205787Y0154803D01*
X0205787Y0155786D02*
X0244576Y0155786D01*
X0243593Y0156769D02*
X0205787Y0156769D01*
X0205787Y0157751D02*
X0242610Y0157751D01*
X0241628Y0158734D02*
X0205787Y0158734D01*
X0205787Y0159717D02*
X0240645Y0159717D01*
X0239662Y0160700D02*
X0205787Y0160700D01*
X0205787Y0161683D02*
X0238679Y0161683D01*
X0237696Y0162665D02*
X0205787Y0162665D01*
X0205787Y0163648D02*
X0236714Y0163648D01*
X0235731Y0164631D02*
X0205932Y0164631D01*
X0206621Y0165614D02*
X0234748Y0165614D01*
X0233765Y0166596D02*
X0206880Y0166596D01*
X0206828Y0167579D02*
X0232783Y0167579D01*
X0231800Y0168562D02*
X0206421Y0168562D01*
X0205303Y0169545D02*
X0230817Y0169545D01*
X0229834Y0170527D02*
X0200561Y0170527D01*
X0199578Y0169545D02*
X0202335Y0169545D01*
X0201217Y0168562D02*
X0198595Y0168562D01*
X0197612Y0167579D02*
X0200810Y0167579D01*
X0200758Y0166596D02*
X0196630Y0166596D01*
X0195647Y0165614D02*
X0201017Y0165614D01*
X0201706Y0164631D02*
X0194664Y0164631D01*
X0193681Y0163648D02*
X0201850Y0163648D01*
X0201850Y0162665D02*
X0192699Y0162665D01*
X0191716Y0161683D02*
X0201850Y0161683D01*
X0201850Y0160700D02*
X0191516Y0160700D01*
X0191516Y0159717D02*
X0201850Y0159717D01*
X0201850Y0158734D02*
X0191516Y0158734D01*
X0191516Y0157751D02*
X0201850Y0157751D01*
X0201850Y0156769D02*
X0191516Y0156769D01*
X0191516Y0155786D02*
X0201850Y0155786D01*
X0201850Y0154803D02*
X0191516Y0154803D01*
X0191516Y0153820D02*
X0201850Y0153820D01*
X0201850Y0152838D02*
X0191516Y0152838D01*
X0191516Y0151855D02*
X0201850Y0151855D01*
X0201850Y0150872D02*
X0191516Y0150872D01*
X0191516Y0149889D02*
X0201850Y0149889D01*
X0201850Y0148907D02*
X0191516Y0148907D01*
X0191516Y0147924D02*
X0201850Y0147924D01*
X0201850Y0146941D02*
X0191516Y0146941D01*
X0191516Y0145958D02*
X0201850Y0145958D01*
X0201850Y0144976D02*
X0191516Y0144976D01*
X0191516Y0143993D02*
X0201850Y0143993D01*
X0201850Y0143010D02*
X0191516Y0143010D01*
X0191516Y0142027D02*
X0201850Y0142027D01*
X0201850Y0141045D02*
X0191516Y0141045D01*
X0191516Y0140062D02*
X0201850Y0140062D01*
X0201850Y0139079D02*
X0191516Y0139079D01*
X0191516Y0138096D02*
X0193904Y0138096D01*
X0192922Y0137113D02*
X0191516Y0137113D01*
X0184626Y0139079D02*
X0085232Y0139079D01*
X0085232Y0140062D02*
X0184626Y0140062D01*
X0184626Y0141045D02*
X0085232Y0141045D01*
X0085232Y0142027D02*
X0184626Y0142027D01*
X0184626Y0143010D02*
X0085232Y0143010D01*
X0085232Y0143993D02*
X0184626Y0143993D01*
X0184626Y0144976D02*
X0085232Y0144976D01*
X0085232Y0145958D02*
X0184626Y0145958D01*
X0184626Y0146941D02*
X0085232Y0146941D01*
X0085232Y0147924D02*
X0184626Y0147924D01*
X0184626Y0148907D02*
X0085232Y0148907D01*
X0085232Y0149889D02*
X0184626Y0149889D01*
X0184626Y0150872D02*
X0085232Y0150872D01*
X0085232Y0151855D02*
X0184626Y0151855D01*
X0184626Y0152838D02*
X0085232Y0152838D01*
X0085232Y0153820D02*
X0184626Y0153820D01*
X0184626Y0154803D02*
X0085232Y0154803D01*
X0085232Y0155786D02*
X0184626Y0155786D01*
X0184626Y0156769D02*
X0085232Y0156769D01*
X0085232Y0157751D02*
X0184626Y0157751D01*
X0184626Y0158734D02*
X0085232Y0158734D01*
X0085232Y0159717D02*
X0184626Y0159717D01*
X0184626Y0160700D02*
X0085126Y0160700D01*
X0084719Y0161683D02*
X0184626Y0161683D01*
X0184626Y0162665D02*
X0084312Y0162665D01*
X0083621Y0163648D02*
X0184648Y0163648D01*
X0185055Y0164631D02*
X0082638Y0164631D01*
X0081132Y0165614D02*
X0185903Y0165614D01*
X0186886Y0166596D02*
X0061610Y0166596D01*
X0061610Y0167579D02*
X0187869Y0167579D01*
X0188852Y0168562D02*
X0061610Y0168562D01*
X0061610Y0169545D02*
X0189834Y0169545D01*
X0190817Y0170527D02*
X0061610Y0170527D01*
X0061610Y0171510D02*
X0191800Y0171510D01*
X0192783Y0172493D02*
X0061610Y0172493D01*
X0061610Y0173476D02*
X0193765Y0173476D01*
X0194748Y0174458D02*
X0061610Y0174458D01*
X0061610Y0175441D02*
X0195731Y0175441D01*
X0196714Y0176424D02*
X0061610Y0176424D01*
X0061610Y0177407D02*
X0197696Y0177407D01*
X0198679Y0178390D02*
X0061610Y0178390D01*
X0061610Y0179372D02*
X0199662Y0179372D01*
X0200645Y0180355D02*
X0061610Y0180355D01*
X0061610Y0181338D02*
X0201627Y0181338D01*
X0206010Y0181338D02*
X0219024Y0181338D01*
X0218041Y0182321D02*
X0061610Y0182321D01*
X0061610Y0183303D02*
X0217058Y0183303D01*
X0216076Y0184286D02*
X0061610Y0184286D01*
X0061610Y0185269D02*
X0215093Y0185269D01*
X0214110Y0186252D02*
X0061610Y0186252D01*
X0061610Y0187234D02*
X0213127Y0187234D01*
X0212145Y0188217D02*
X0061610Y0188217D01*
X0061610Y0189200D02*
X0211162Y0189200D01*
X0210179Y0190183D02*
X0156680Y0190183D01*
X0157392Y0191165D02*
X0209196Y0191165D01*
X0208214Y0192148D02*
X0157667Y0192148D01*
X0158084Y0193131D02*
X0207231Y0193131D01*
X0206248Y0194114D02*
X0159067Y0194114D01*
X0158543Y0196374D02*
X0154606Y0192437D01*
X0151820Y0191165D02*
X0061610Y0191165D01*
X0061610Y0190183D02*
X0152532Y0190183D01*
X0151546Y0192148D02*
X0061610Y0192148D01*
X0061610Y0193131D02*
X0151581Y0193131D01*
X0148601Y0194114D02*
X0061610Y0194114D01*
X0061610Y0195096D02*
X0147886Y0195096D01*
X0147609Y0196079D02*
X0061610Y0196079D01*
X0061610Y0197062D02*
X0147641Y0197062D01*
X0148049Y0198045D02*
X0061610Y0198045D01*
X0061610Y0199028D02*
X0132023Y0199028D01*
X0131040Y0200010D02*
X0061610Y0200010D01*
X0061610Y0200993D02*
X0130058Y0200993D01*
X0129075Y0201976D02*
X0061610Y0201976D01*
X0061610Y0202959D02*
X0128092Y0202959D01*
X0127109Y0203941D02*
X0126713Y0203941D01*
X0123287Y0203941D02*
X0116713Y0203941D01*
X0118410Y0204924D02*
X0121590Y0204924D01*
X0120610Y0205907D02*
X0119390Y0205907D01*
X0119797Y0206890D02*
X0120203Y0206890D01*
X0125000Y0208835D02*
X0133524Y0200311D01*
X0349488Y0200311D01*
X0359331Y0210154D01*
X0359331Y0212122D01*
X0362104Y0210821D02*
X0397209Y0210821D01*
X0397209Y0211803D02*
X0362391Y0211803D01*
X0362368Y0212786D02*
X0397209Y0212786D01*
X0397209Y0213769D02*
X0361961Y0213769D01*
X0360980Y0214752D02*
X0397209Y0214752D01*
X0397209Y0215735D02*
X0342754Y0215735D01*
X0341771Y0216717D02*
X0397209Y0216717D01*
X0397209Y0217700D02*
X0340789Y0217700D01*
X0339806Y0218683D02*
X0397209Y0218683D01*
X0397209Y0219666D02*
X0338823Y0219666D01*
X0337840Y0220648D02*
X0397209Y0220648D01*
X0397209Y0221631D02*
X0336857Y0221631D01*
X0335875Y0222614D02*
X0397209Y0222614D01*
X0397209Y0223597D02*
X0334892Y0223597D01*
X0333909Y0224579D02*
X0397209Y0224579D01*
X0397209Y0225562D02*
X0332926Y0225562D01*
X0331944Y0226545D02*
X0397209Y0226545D01*
X0397209Y0227528D02*
X0330961Y0227528D01*
X0329978Y0228510D02*
X0397209Y0228510D01*
X0397209Y0229493D02*
X0328995Y0229493D01*
X0328013Y0230476D02*
X0397209Y0230476D01*
X0397209Y0231459D02*
X0327030Y0231459D01*
X0325866Y0229839D02*
X0343583Y0212122D01*
X0346356Y0210821D02*
X0356557Y0210821D01*
X0356270Y0211803D02*
X0346643Y0211803D01*
X0346620Y0212786D02*
X0356293Y0212786D01*
X0356700Y0213769D02*
X0346213Y0213769D01*
X0345232Y0214752D02*
X0357682Y0214752D01*
X0356231Y0209838D02*
X0345627Y0209838D01*
X0341538Y0209838D02*
X0339721Y0209838D01*
X0340451Y0210821D02*
X0340809Y0210821D01*
X0337677Y0212122D02*
X0321929Y0227870D01*
X0134035Y0227870D01*
X0125000Y0218835D01*
X0132246Y0223297D02*
X0134851Y0225902D01*
X0321114Y0225902D01*
X0332213Y0214802D01*
X0332006Y0214717D01*
X0331145Y0213856D01*
X0330680Y0212731D01*
X0330680Y0211513D01*
X0331145Y0210388D01*
X0331168Y0210366D01*
X0325051Y0204248D01*
X0307453Y0204248D01*
X0307932Y0204446D01*
X0309388Y0205902D01*
X0310176Y0207805D01*
X0310176Y0209864D01*
X0309388Y0211767D01*
X0307932Y0213223D01*
X0306455Y0213835D01*
X0307932Y0214446D01*
X0309388Y0215902D01*
X0310176Y0217805D01*
X0310176Y0219864D01*
X0309388Y0221767D01*
X0307932Y0223223D01*
X0306030Y0224011D01*
X0303970Y0224011D01*
X0302068Y0223223D01*
X0300612Y0221767D01*
X0300000Y0220290D01*
X0299388Y0221767D01*
X0297932Y0223223D01*
X0296030Y0224011D01*
X0293970Y0224011D01*
X0292068Y0223223D01*
X0290612Y0221767D01*
X0290000Y0220290D01*
X0289388Y0221767D01*
X0287932Y0223223D01*
X0286030Y0224011D01*
X0283970Y0224011D01*
X0282068Y0223223D01*
X0280612Y0221767D01*
X0280000Y0220290D01*
X0279388Y0221767D01*
X0277932Y0223223D01*
X0276030Y0224011D01*
X0273970Y0224011D01*
X0272068Y0223223D01*
X0270612Y0221767D01*
X0270000Y0220290D01*
X0269388Y0221767D01*
X0267932Y0223223D01*
X0266030Y0224011D01*
X0263970Y0224011D01*
X0262068Y0223223D01*
X0260612Y0221767D01*
X0260000Y0220290D01*
X0259388Y0221767D01*
X0257932Y0223223D01*
X0256030Y0224011D01*
X0253970Y0224011D01*
X0252068Y0223223D01*
X0250612Y0221767D01*
X0250000Y0220290D01*
X0249388Y0221767D01*
X0247932Y0223223D01*
X0246030Y0224011D01*
X0243970Y0224011D01*
X0242068Y0223223D01*
X0240612Y0221767D01*
X0240000Y0220290D01*
X0239388Y0221767D01*
X0237932Y0223223D01*
X0236030Y0224011D01*
X0233970Y0224011D01*
X0232068Y0223223D01*
X0230612Y0221767D01*
X0230000Y0220290D01*
X0229388Y0221767D01*
X0227932Y0223223D01*
X0226030Y0224011D01*
X0223970Y0224011D01*
X0222068Y0223223D01*
X0220612Y0221767D01*
X0220000Y0220290D01*
X0219388Y0221767D01*
X0217932Y0223223D01*
X0216030Y0224011D01*
X0213970Y0224011D01*
X0212068Y0223223D01*
X0210612Y0221767D01*
X0210000Y0220290D01*
X0209388Y0221767D01*
X0207932Y0223223D01*
X0206030Y0224011D01*
X0203970Y0224011D01*
X0202068Y0223223D01*
X0200612Y0221767D01*
X0200000Y0220290D01*
X0199388Y0221767D01*
X0197932Y0223223D01*
X0196030Y0224011D01*
X0193970Y0224011D01*
X0192068Y0223223D01*
X0190612Y0221767D01*
X0190000Y0220290D01*
X0189388Y0221767D01*
X0187932Y0223223D01*
X0186030Y0224011D01*
X0183970Y0224011D01*
X0182068Y0223223D01*
X0180612Y0221767D01*
X0180000Y0220290D01*
X0179388Y0221767D01*
X0177932Y0223223D01*
X0176030Y0224011D01*
X0173970Y0224011D01*
X0172068Y0223223D01*
X0170612Y0221767D01*
X0170000Y0220290D01*
X0169388Y0221767D01*
X0167932Y0223223D01*
X0166030Y0224011D01*
X0163970Y0224011D01*
X0162068Y0223223D01*
X0160612Y0221767D01*
X0160000Y0220290D01*
X0159388Y0221767D01*
X0157932Y0223223D01*
X0156030Y0224011D01*
X0153970Y0224011D01*
X0152068Y0223223D01*
X0150612Y0221767D01*
X0150000Y0220290D01*
X0149388Y0221767D01*
X0147932Y0223223D01*
X0146030Y0224011D01*
X0143970Y0224011D01*
X0142068Y0223223D01*
X0140612Y0221767D01*
X0140000Y0220290D01*
X0139388Y0221767D01*
X0137932Y0223223D01*
X0136030Y0224011D01*
X0133970Y0224011D01*
X0132246Y0223297D01*
X0132546Y0223597D02*
X0132970Y0223597D01*
X0133529Y0224579D02*
X0322436Y0224579D01*
X0323419Y0223597D02*
X0307030Y0223597D01*
X0308541Y0222614D02*
X0324401Y0222614D01*
X0325384Y0221631D02*
X0309445Y0221631D01*
X0309852Y0220648D02*
X0326367Y0220648D01*
X0327350Y0219666D02*
X0310176Y0219666D01*
X0310176Y0218683D02*
X0328333Y0218683D01*
X0329315Y0217700D02*
X0310133Y0217700D01*
X0309726Y0216717D02*
X0330298Y0216717D01*
X0331281Y0215735D02*
X0309220Y0215735D01*
X0308238Y0214752D02*
X0332091Y0214752D01*
X0331110Y0213769D02*
X0306614Y0213769D01*
X0308369Y0212786D02*
X0330702Y0212786D01*
X0330680Y0211803D02*
X0309352Y0211803D01*
X0309780Y0210821D02*
X0330966Y0210821D01*
X0330641Y0209838D02*
X0310176Y0209838D01*
X0310176Y0208855D02*
X0329658Y0208855D01*
X0328675Y0207872D02*
X0310176Y0207872D01*
X0309797Y0206890D02*
X0327692Y0206890D01*
X0326710Y0205907D02*
X0309390Y0205907D01*
X0308410Y0204924D02*
X0325727Y0204924D01*
X0325866Y0202280D02*
X0333740Y0210154D01*
X0333740Y0212122D01*
X0335226Y0208855D02*
X0355248Y0208855D01*
X0354266Y0207872D02*
X0334243Y0207872D01*
X0333260Y0206890D02*
X0353283Y0206890D01*
X0352300Y0205907D02*
X0332277Y0205907D01*
X0331295Y0204924D02*
X0351317Y0204924D01*
X0350335Y0203941D02*
X0330312Y0203941D01*
X0329329Y0202959D02*
X0349352Y0202959D01*
X0351971Y0200010D02*
X0397209Y0200010D01*
X0397209Y0199028D02*
X0350989Y0199028D01*
X0352954Y0200993D02*
X0397209Y0200993D01*
X0397209Y0201976D02*
X0353937Y0201976D01*
X0354920Y0202959D02*
X0397209Y0202959D01*
X0397209Y0203941D02*
X0355902Y0203941D01*
X0356885Y0204924D02*
X0397209Y0204924D01*
X0397209Y0205907D02*
X0357868Y0205907D01*
X0358851Y0206890D02*
X0397209Y0206890D01*
X0397209Y0207872D02*
X0359833Y0207872D01*
X0360816Y0208855D02*
X0397209Y0208855D01*
X0397209Y0209838D02*
X0361375Y0209838D01*
X0354988Y0191165D02*
X0397209Y0191165D01*
X0397209Y0190183D02*
X0356041Y0190183D01*
X0356448Y0189200D02*
X0397209Y0189200D01*
X0397209Y0188217D02*
X0357063Y0188217D01*
X0357985Y0187234D02*
X0397209Y0187234D01*
X0397209Y0186252D02*
X0358906Y0186252D01*
X0359827Y0185269D02*
X0397209Y0185269D01*
X0397209Y0184286D02*
X0360749Y0184286D01*
X0361670Y0183303D02*
X0397209Y0183303D01*
X0397209Y0182321D02*
X0362591Y0182321D01*
X0363513Y0181338D02*
X0397209Y0181338D01*
X0397209Y0180355D02*
X0364434Y0180355D01*
X0365355Y0179372D02*
X0397209Y0179372D01*
X0397209Y0178390D02*
X0366277Y0178390D01*
X0367198Y0177407D02*
X0397209Y0177407D01*
X0397209Y0176424D02*
X0368119Y0176424D01*
X0369041Y0175441D02*
X0397209Y0175441D01*
X0397209Y0174458D02*
X0369962Y0174458D01*
X0370883Y0173476D02*
X0397209Y0173476D01*
X0397209Y0172493D02*
X0371805Y0172493D01*
X0372726Y0171510D02*
X0397209Y0171510D01*
X0397209Y0170527D02*
X0373647Y0170527D01*
X0374569Y0169545D02*
X0379984Y0169545D01*
X0379001Y0168562D02*
X0375490Y0168562D01*
X0376411Y0167579D02*
X0378338Y0167579D01*
X0377931Y0166596D02*
X0377333Y0166596D01*
X0385922Y0169545D02*
X0397209Y0169545D01*
X0397209Y0168562D02*
X0386904Y0168562D01*
X0387567Y0167579D02*
X0397209Y0167579D01*
X0397209Y0166596D02*
X0387974Y0166596D01*
X0388129Y0165614D02*
X0397209Y0165614D01*
X0397209Y0164631D02*
X0388129Y0164631D01*
X0387916Y0163648D02*
X0397209Y0163648D01*
X0397209Y0162665D02*
X0387509Y0162665D01*
X0386763Y0161683D02*
X0397209Y0161683D01*
X0397209Y0160700D02*
X0385632Y0160700D01*
X0385557Y0159717D02*
X0397209Y0159717D01*
X0397209Y0158734D02*
X0386732Y0158734D01*
X0387496Y0157751D02*
X0397209Y0157751D01*
X0397209Y0156769D02*
X0387903Y0156769D01*
X0388129Y0155786D02*
X0397209Y0155786D01*
X0397209Y0154803D02*
X0388129Y0154803D01*
X0387987Y0153820D02*
X0397209Y0153820D01*
X0397209Y0152838D02*
X0387580Y0152838D01*
X0386935Y0151855D02*
X0397209Y0151855D01*
X0397209Y0150872D02*
X0385952Y0150872D01*
X0385141Y0149889D02*
X0397209Y0149889D01*
X0397209Y0148907D02*
X0386560Y0148907D01*
X0387424Y0147924D02*
X0397209Y0147924D01*
X0397209Y0146941D02*
X0387831Y0146941D01*
X0388129Y0145958D02*
X0397209Y0145958D01*
X0397209Y0144976D02*
X0388129Y0144976D01*
X0388059Y0143993D02*
X0397209Y0143993D01*
X0397209Y0143010D02*
X0387651Y0143010D01*
X0387108Y0142027D02*
X0397209Y0142027D01*
X0397209Y0141045D02*
X0386125Y0141045D01*
X0384092Y0140062D02*
X0397209Y0140062D01*
X0397209Y0139079D02*
X0370319Y0139079D01*
X0369665Y0138096D02*
X0397209Y0138096D01*
X0397209Y0137113D02*
X0369665Y0137113D01*
X0369665Y0136131D02*
X0397209Y0136131D01*
X0397209Y0135148D02*
X0369665Y0135148D01*
X0369665Y0134165D02*
X0373022Y0134165D01*
X0372039Y0133182D02*
X0370222Y0133182D01*
X0374771Y0133182D02*
X0375387Y0133182D01*
X0375387Y0132200D02*
X0374771Y0132200D01*
X0374771Y0131217D02*
X0375387Y0131217D01*
X0375387Y0130234D02*
X0374771Y0130234D01*
X0375387Y0129251D02*
X0382645Y0129251D01*
X0383261Y0129251D02*
X0397209Y0129251D01*
X0397209Y0128269D02*
X0387745Y0128269D01*
X0387571Y0127286D02*
X0397209Y0127286D01*
X0397209Y0126303D02*
X0386588Y0126303D01*
X0385605Y0125320D02*
X0397209Y0125320D01*
X0397209Y0124338D02*
X0392524Y0124338D01*
X0393507Y0123355D02*
X0397209Y0123355D01*
X0397209Y0122372D02*
X0394490Y0122372D01*
X0395472Y0121389D02*
X0397209Y0121389D01*
X0397209Y0120406D02*
X0396455Y0120406D01*
X0397093Y0119424D02*
X0397209Y0119424D01*
X0392303Y0117458D02*
X0368196Y0117458D01*
X0367213Y0118441D02*
X0391461Y0118441D01*
X0390478Y0119424D02*
X0366230Y0119424D01*
X0363268Y0119602D02*
X0369173Y0113697D01*
X0366338Y0112544D02*
X0336576Y0112544D01*
X0336801Y0113527D02*
X0366113Y0113527D01*
X0365576Y0114510D02*
X0336716Y0114510D01*
X0336273Y0115493D02*
X0364594Y0115493D01*
X0363611Y0116475D02*
X0335030Y0116475D01*
X0332450Y0116475D02*
X0289454Y0116475D01*
X0288471Y0117458D02*
X0362628Y0117458D01*
X0363268Y0119602D02*
X0286496Y0119602D01*
X0207756Y0198343D01*
X0152638Y0198343D01*
X0150669Y0196374D01*
X0158543Y0196374D02*
X0206772Y0196374D01*
X0289449Y0113697D01*
X0333740Y0113697D01*
X0331547Y0111562D02*
X0151161Y0111562D01*
X0151161Y0112544D02*
X0287817Y0112544D01*
X0286835Y0113527D02*
X0152011Y0113527D01*
X0152994Y0114510D02*
X0285852Y0114510D01*
X0284869Y0115493D02*
X0153976Y0115493D01*
X0154959Y0116475D02*
X0283886Y0116475D01*
X0282904Y0117458D02*
X0155942Y0117458D01*
X0156925Y0118441D02*
X0281921Y0118441D01*
X0280938Y0119424D02*
X0157908Y0119424D01*
X0158890Y0120406D02*
X0279955Y0120406D01*
X0278973Y0121389D02*
X0159873Y0121389D01*
X0160856Y0122372D02*
X0277990Y0122372D01*
X0277007Y0123355D02*
X0161839Y0123355D01*
X0162821Y0124338D02*
X0276024Y0124338D01*
X0275041Y0125320D02*
X0163804Y0125320D01*
X0164787Y0126303D02*
X0274059Y0126303D01*
X0273076Y0127286D02*
X0165770Y0127286D01*
X0150936Y0127286D02*
X0129641Y0127286D01*
X0128658Y0126303D02*
X0149953Y0126303D01*
X0148970Y0125320D02*
X0127675Y0125320D01*
X0126692Y0124338D02*
X0147988Y0124338D01*
X0147005Y0123355D02*
X0125710Y0123355D01*
X0124727Y0122372D02*
X0146022Y0122372D01*
X0145039Y0121389D02*
X0123744Y0121389D01*
X0122761Y0120406D02*
X0144057Y0120406D01*
X0143074Y0119424D02*
X0121778Y0119424D01*
X0120796Y0118441D02*
X0142435Y0118441D01*
X0142303Y0117458D02*
X0119813Y0117458D01*
X0118830Y0116475D02*
X0142303Y0116475D01*
X0142303Y0115493D02*
X0117847Y0115493D01*
X0116865Y0114510D02*
X0142303Y0114510D01*
X0142303Y0113527D02*
X0115882Y0113527D01*
X0114899Y0112544D02*
X0142303Y0112544D01*
X0142303Y0111562D02*
X0113916Y0111562D01*
X0112934Y0110579D02*
X0142303Y0110579D01*
X0142303Y0109596D02*
X0111951Y0109596D01*
X0110968Y0108613D02*
X0142303Y0108613D01*
X0142303Y0107631D02*
X0109985Y0107631D01*
X0109003Y0106648D02*
X0142303Y0106648D01*
X0142303Y0105665D02*
X0108020Y0105665D01*
X0107037Y0104682D02*
X0142303Y0104682D01*
X0142303Y0103700D02*
X0106054Y0103700D01*
X0105394Y0102717D02*
X0142303Y0102717D01*
X0142303Y0101734D02*
X0105394Y0101734D01*
X0105394Y0100751D02*
X0142303Y0100751D01*
X0142303Y0099768D02*
X0105394Y0099768D01*
X0105394Y0098786D02*
X0142303Y0098786D01*
X0142303Y0097803D02*
X0105394Y0097803D01*
X0105394Y0096820D02*
X0142303Y0096820D01*
X0142303Y0095837D02*
X0105394Y0095837D01*
X0105394Y0094855D02*
X0142303Y0094855D01*
X0142303Y0093872D02*
X0105394Y0093872D01*
X0105394Y0092889D02*
X0142303Y0092889D01*
X0142303Y0091906D02*
X0105394Y0091906D01*
X0105394Y0090924D02*
X0142303Y0090924D01*
X0142303Y0089941D02*
X0105394Y0089941D01*
X0105394Y0088958D02*
X0142303Y0088958D01*
X0142303Y0087975D02*
X0105394Y0087975D01*
X0105394Y0086993D02*
X0142303Y0086993D01*
X0142303Y0086010D02*
X0105394Y0086010D01*
X0105394Y0085027D02*
X0142303Y0085027D01*
X0146240Y0082201D02*
X0146240Y0054999D01*
X0144764Y0053523D01*
X0142805Y0055481D01*
X0138848Y0055481D01*
X0136890Y0053523D01*
X0134931Y0055481D01*
X0130974Y0055481D01*
X0129016Y0053523D01*
X0127057Y0055481D01*
X0123100Y0055481D01*
X0121142Y0053523D01*
X0119183Y0055481D01*
X0115226Y0055481D01*
X0112428Y0052683D01*
X0112428Y0048726D01*
X0115226Y0045928D01*
X0119183Y0045928D01*
X0121142Y0047887D01*
X0123100Y0045928D01*
X0127057Y0045928D01*
X0129016Y0047887D01*
X0130974Y0045928D01*
X0134931Y0045928D01*
X0136890Y0047887D01*
X0138848Y0045928D01*
X0142805Y0045928D01*
X0144764Y0047887D01*
X0146240Y0046411D01*
X0146240Y0044310D01*
X0146615Y0043405D01*
X0148583Y0041437D01*
X0149158Y0040862D01*
X0108178Y0040862D01*
X0105394Y0043646D01*
X0105394Y0082201D01*
X0146240Y0082201D01*
X0146240Y0082079D02*
X0105394Y0082079D01*
X0105394Y0081096D02*
X0146240Y0081096D01*
X0146240Y0080113D02*
X0105394Y0080113D01*
X0105394Y0079130D02*
X0146240Y0079130D01*
X0146240Y0078148D02*
X0105394Y0078148D01*
X0105394Y0077165D02*
X0146240Y0077165D01*
X0146240Y0076182D02*
X0105394Y0076182D01*
X0105394Y0075199D02*
X0146240Y0075199D01*
X0146240Y0074217D02*
X0105394Y0074217D01*
X0105394Y0073234D02*
X0146240Y0073234D01*
X0146240Y0072251D02*
X0105394Y0072251D01*
X0105394Y0071268D02*
X0146240Y0071268D01*
X0146240Y0070286D02*
X0105394Y0070286D01*
X0105394Y0069303D02*
X0146240Y0069303D01*
X0146240Y0068320D02*
X0105394Y0068320D01*
X0105394Y0067337D02*
X0146240Y0067337D01*
X0146240Y0066355D02*
X0105394Y0066355D01*
X0105394Y0065372D02*
X0146240Y0065372D01*
X0146240Y0064389D02*
X0105394Y0064389D01*
X0105394Y0063406D02*
X0146240Y0063406D01*
X0146240Y0062423D02*
X0105394Y0062423D01*
X0105394Y0061441D02*
X0146240Y0061441D01*
X0146240Y0060458D02*
X0105394Y0060458D01*
X0105394Y0059475D02*
X0146240Y0059475D01*
X0146240Y0058492D02*
X0105394Y0058492D01*
X0105394Y0057510D02*
X0146240Y0057510D01*
X0146240Y0056527D02*
X0105394Y0056527D01*
X0105394Y0055544D02*
X0146240Y0055544D01*
X0145803Y0054561D02*
X0143725Y0054561D01*
X0144708Y0053579D02*
X0144820Y0053579D01*
X0151161Y0054999D02*
X0151161Y0082201D01*
X0392303Y0082201D01*
X0392303Y0012354D01*
X0389808Y0009858D01*
X0319961Y0009858D01*
X0319961Y0038894D01*
X0160343Y0038894D01*
X0159528Y0039709D01*
X0158867Y0040370D01*
X0351946Y0040370D01*
X0352851Y0040745D01*
X0354819Y0042713D01*
X0355511Y0043405D01*
X0355886Y0044310D01*
X0355886Y0046411D01*
X0357362Y0047887D01*
X0359321Y0045928D01*
X0363278Y0045928D01*
X0365225Y0047876D01*
X0367188Y0045913D01*
X0368865Y0045913D01*
X0368865Y0050397D01*
X0369481Y0050397D01*
X0369481Y0051013D01*
X0368865Y0051013D01*
X0368865Y0055497D01*
X0367188Y0055497D01*
X0365225Y0053534D01*
X0363278Y0055481D01*
X0359321Y0055481D01*
X0357362Y0053523D01*
X0355404Y0055481D01*
X0351447Y0055481D01*
X0349488Y0053523D01*
X0347530Y0055481D01*
X0343573Y0055481D01*
X0341614Y0053523D01*
X0339656Y0055481D01*
X0335699Y0055481D01*
X0333740Y0053523D01*
X0331782Y0055481D01*
X0327825Y0055481D01*
X0325027Y0052683D01*
X0325027Y0048726D01*
X0327825Y0045928D01*
X0331782Y0045928D01*
X0333740Y0047887D01*
X0335699Y0045928D01*
X0339656Y0045928D01*
X0341614Y0047887D01*
X0343573Y0045928D01*
X0347530Y0045928D01*
X0349488Y0047887D01*
X0350965Y0046411D01*
X0350965Y0045818D01*
X0350437Y0045291D01*
X0288957Y0045291D01*
X0288957Y0045928D01*
X0292412Y0045928D01*
X0294359Y0047876D01*
X0296322Y0045913D01*
X0297999Y0045913D01*
X0297999Y0050397D01*
X0298615Y0050397D01*
X0298615Y0051013D01*
X0297999Y0051013D01*
X0297999Y0055497D01*
X0296322Y0055497D01*
X0294359Y0053534D01*
X0292412Y0055481D01*
X0288455Y0055481D01*
X0286496Y0053523D01*
X0284537Y0055481D01*
X0280581Y0055481D01*
X0278622Y0053523D01*
X0276663Y0055481D01*
X0272707Y0055481D01*
X0270748Y0053523D01*
X0268789Y0055481D01*
X0264833Y0055481D01*
X0262874Y0053523D01*
X0260915Y0055481D01*
X0256959Y0055481D01*
X0254161Y0052683D01*
X0254161Y0048726D01*
X0256959Y0045928D01*
X0260915Y0045928D01*
X0262874Y0047887D01*
X0264833Y0045928D01*
X0268789Y0045928D01*
X0270748Y0047887D01*
X0272707Y0045928D01*
X0276663Y0045928D01*
X0278622Y0047887D01*
X0280581Y0045928D01*
X0284035Y0045928D01*
X0284035Y0045291D01*
X0218091Y0045291D01*
X0218091Y0045928D01*
X0221545Y0045928D01*
X0223493Y0047876D01*
X0225456Y0045913D01*
X0227133Y0045913D01*
X0227133Y0050397D01*
X0227749Y0050397D01*
X0227749Y0051013D01*
X0227133Y0051013D01*
X0227133Y0055497D01*
X0225456Y0055497D01*
X0223493Y0053534D01*
X0221545Y0055481D01*
X0217588Y0055481D01*
X0215630Y0053523D01*
X0213671Y0055481D01*
X0209714Y0055481D01*
X0207756Y0053523D01*
X0205797Y0055481D01*
X0201840Y0055481D01*
X0199882Y0053523D01*
X0197923Y0055481D01*
X0193966Y0055481D01*
X0192008Y0053523D01*
X0190049Y0055481D01*
X0186092Y0055481D01*
X0183294Y0052683D01*
X0183294Y0048726D01*
X0186092Y0045928D01*
X0190049Y0045928D01*
X0192008Y0047887D01*
X0193966Y0045928D01*
X0197923Y0045928D01*
X0199882Y0047887D01*
X0201840Y0045928D01*
X0205797Y0045928D01*
X0207756Y0047887D01*
X0209714Y0045928D01*
X0213169Y0045928D01*
X0213169Y0045291D01*
X0151689Y0045291D01*
X0151161Y0045818D01*
X0151161Y0046411D01*
X0152627Y0047876D01*
X0154590Y0045913D01*
X0156267Y0045913D01*
X0156267Y0050397D01*
X0156883Y0050397D01*
X0156883Y0051013D01*
X0156267Y0051013D01*
X0156267Y0055497D01*
X0154590Y0055497D01*
X0152627Y0053534D01*
X0151161Y0054999D01*
X0151161Y0055544D02*
X0392303Y0055544D01*
X0392303Y0054561D02*
X0372094Y0054561D01*
X0371158Y0055497D02*
X0369481Y0055497D01*
X0369481Y0051013D01*
X0373965Y0051013D01*
X0373965Y0052690D01*
X0371158Y0055497D01*
X0369481Y0054561D02*
X0368865Y0054561D01*
X0368865Y0053579D02*
X0369481Y0053579D01*
X0369481Y0052596D02*
X0368865Y0052596D01*
X0368865Y0051613D02*
X0369481Y0051613D01*
X0369481Y0050630D02*
X0392303Y0050630D01*
X0392303Y0049648D02*
X0373965Y0049648D01*
X0373965Y0050397D02*
X0373965Y0048720D01*
X0371158Y0045913D01*
X0369481Y0045913D01*
X0369481Y0050397D01*
X0373965Y0050397D01*
X0373965Y0051613D02*
X0392303Y0051613D01*
X0392303Y0052596D02*
X0373965Y0052596D01*
X0373076Y0053579D02*
X0392303Y0053579D01*
X0392303Y0056527D02*
X0151161Y0056527D01*
X0151161Y0057510D02*
X0392303Y0057510D01*
X0392303Y0058492D02*
X0151161Y0058492D01*
X0151161Y0059475D02*
X0392303Y0059475D01*
X0392303Y0060458D02*
X0151161Y0060458D01*
X0151161Y0061441D02*
X0392303Y0061441D01*
X0392303Y0062423D02*
X0151161Y0062423D01*
X0151161Y0063406D02*
X0392303Y0063406D01*
X0392303Y0064389D02*
X0151161Y0064389D01*
X0151161Y0065372D02*
X0392303Y0065372D01*
X0392303Y0066355D02*
X0151161Y0066355D01*
X0151161Y0067337D02*
X0392303Y0067337D01*
X0392303Y0068320D02*
X0151161Y0068320D01*
X0151161Y0069303D02*
X0392303Y0069303D01*
X0392303Y0070286D02*
X0151161Y0070286D01*
X0151161Y0071268D02*
X0392303Y0071268D01*
X0392303Y0072251D02*
X0151161Y0072251D01*
X0151161Y0073234D02*
X0392303Y0073234D01*
X0392303Y0074217D02*
X0151161Y0074217D01*
X0151161Y0075199D02*
X0162845Y0075199D01*
X0162497Y0075343D02*
X0163764Y0074819D01*
X0174977Y0074819D01*
X0176243Y0075343D01*
X0177212Y0076312D01*
X0177736Y0077579D01*
X0177736Y0078949D01*
X0177212Y0080215D01*
X0176243Y0081184D01*
X0174977Y0081709D01*
X0163764Y0081709D01*
X0162497Y0081184D01*
X0161528Y0080215D01*
X0161004Y0078949D01*
X0161004Y0077579D01*
X0161528Y0076312D01*
X0162497Y0075343D01*
X0161659Y0076182D02*
X0151161Y0076182D01*
X0151161Y0077165D02*
X0161175Y0077165D01*
X0161004Y0078148D02*
X0151161Y0078148D01*
X0151161Y0079130D02*
X0161079Y0079130D01*
X0161486Y0080113D02*
X0151161Y0080113D01*
X0151161Y0081096D02*
X0162409Y0081096D01*
X0151161Y0082079D02*
X0392303Y0082079D01*
X0392303Y0081096D02*
X0247197Y0081096D01*
X0247109Y0081184D02*
X0245843Y0081709D01*
X0234630Y0081709D01*
X0233364Y0081184D01*
X0232395Y0080215D01*
X0231870Y0078949D01*
X0231870Y0077579D01*
X0232395Y0076312D01*
X0233364Y0075343D01*
X0234630Y0074819D01*
X0245843Y0074819D01*
X0247109Y0075343D01*
X0248078Y0076312D01*
X0248602Y0077579D01*
X0248602Y0078949D01*
X0248078Y0080215D01*
X0247109Y0081184D01*
X0248120Y0080113D02*
X0392303Y0080113D01*
X0392303Y0079130D02*
X0248527Y0079130D01*
X0248602Y0078148D02*
X0392303Y0078148D01*
X0392303Y0077165D02*
X0248431Y0077165D01*
X0247948Y0076182D02*
X0392303Y0076182D01*
X0392303Y0075199D02*
X0246761Y0075199D01*
X0233711Y0075199D02*
X0175895Y0075199D01*
X0177081Y0076182D02*
X0232525Y0076182D01*
X0232041Y0077165D02*
X0177565Y0077165D01*
X0177736Y0078148D02*
X0231870Y0078148D01*
X0231945Y0079130D02*
X0177661Y0079130D01*
X0177254Y0080113D02*
X0232352Y0080113D01*
X0233275Y0081096D02*
X0176331Y0081096D01*
X0151161Y0085027D02*
X0392303Y0085027D01*
X0392303Y0086010D02*
X0151161Y0086010D01*
X0151161Y0086993D02*
X0392303Y0086993D01*
X0392303Y0087975D02*
X0151161Y0087975D01*
X0151161Y0088958D02*
X0392303Y0088958D01*
X0392303Y0089941D02*
X0151161Y0089941D01*
X0151161Y0090924D02*
X0392303Y0090924D01*
X0392303Y0091906D02*
X0151161Y0091906D01*
X0151161Y0092889D02*
X0392303Y0092889D01*
X0392303Y0093872D02*
X0151161Y0093872D01*
X0151161Y0094855D02*
X0392303Y0094855D01*
X0392303Y0095837D02*
X0151161Y0095837D01*
X0151161Y0096820D02*
X0392303Y0096820D01*
X0392303Y0097803D02*
X0151161Y0097803D01*
X0151161Y0098786D02*
X0392303Y0098786D01*
X0392303Y0099768D02*
X0151161Y0099768D01*
X0151161Y0100751D02*
X0392303Y0100751D01*
X0392303Y0101734D02*
X0151161Y0101734D01*
X0151161Y0102717D02*
X0392303Y0102717D01*
X0392303Y0103700D02*
X0151161Y0103700D01*
X0151161Y0104682D02*
X0392303Y0104682D01*
X0392303Y0105665D02*
X0151161Y0105665D01*
X0151161Y0106648D02*
X0392303Y0106648D01*
X0392303Y0107631D02*
X0151161Y0107631D01*
X0151161Y0108613D02*
X0392303Y0108613D01*
X0392303Y0109596D02*
X0151161Y0109596D01*
X0151161Y0110579D02*
X0392303Y0110579D01*
X0392303Y0111562D02*
X0371366Y0111562D01*
X0372009Y0112544D02*
X0392303Y0112544D01*
X0392303Y0113527D02*
X0372234Y0113527D01*
X0372149Y0114510D02*
X0392303Y0114510D01*
X0392303Y0115493D02*
X0371706Y0115493D01*
X0370463Y0116475D02*
X0392303Y0116475D01*
X0387745Y0130234D02*
X0397209Y0130234D01*
X0397209Y0131217D02*
X0387745Y0131217D01*
X0386975Y0132200D02*
X0397209Y0132200D01*
X0397209Y0133182D02*
X0385992Y0133182D01*
X0385010Y0134165D02*
X0397209Y0134165D01*
X0383261Y0134165D02*
X0382645Y0134165D01*
X0382645Y0133182D02*
X0383261Y0133182D01*
X0383261Y0132200D02*
X0382645Y0132200D01*
X0382645Y0131217D02*
X0383261Y0131217D01*
X0383261Y0130234D02*
X0382645Y0130234D01*
X0379913Y0133182D02*
X0378118Y0133182D01*
X0377136Y0134165D02*
X0380896Y0134165D01*
X0375387Y0134165D02*
X0374771Y0134165D01*
X0371301Y0140062D02*
X0381814Y0140062D01*
X0379781Y0141045D02*
X0372284Y0141045D01*
X0373267Y0142027D02*
X0378798Y0142027D01*
X0378254Y0143010D02*
X0374250Y0143010D01*
X0375232Y0143993D02*
X0377847Y0143993D01*
X0377776Y0144976D02*
X0376215Y0144976D01*
X0377198Y0145958D02*
X0377776Y0145958D01*
X0348996Y0145958D02*
X0348759Y0145958D01*
X0348759Y0146223D02*
X0348537Y0146759D01*
X0348996Y0146300D01*
X0348996Y0133739D01*
X0347520Y0132263D01*
X0345561Y0134221D01*
X0341604Y0134221D01*
X0338806Y0131423D01*
X0338806Y0127466D01*
X0341122Y0125151D01*
X0341122Y0125016D01*
X0326246Y0125016D01*
X0328690Y0127460D01*
X0328690Y0129137D01*
X0324206Y0129137D01*
X0324206Y0129753D01*
X0328690Y0129753D01*
X0328690Y0131430D01*
X0325883Y0134237D01*
X0324206Y0134237D01*
X0324206Y0129753D01*
X0323590Y0129753D01*
X0323590Y0134237D01*
X0321913Y0134237D01*
X0319961Y0132285D01*
X0318009Y0134237D01*
X0316331Y0134237D01*
X0316331Y0129753D01*
X0315716Y0129753D01*
X0315716Y0134237D01*
X0314039Y0134237D01*
X0312075Y0132274D01*
X0310610Y0133739D01*
X0310610Y0138426D01*
X0318943Y0146759D01*
X0318721Y0146223D01*
X0318721Y0144163D01*
X0319509Y0142261D01*
X0320965Y0140805D01*
X0322868Y0140017D01*
X0324927Y0140017D01*
X0326830Y0140805D01*
X0328286Y0142261D01*
X0329074Y0144163D01*
X0329074Y0146223D01*
X0328286Y0148125D01*
X0326830Y0149581D01*
X0325353Y0150193D01*
X0326830Y0150805D01*
X0328286Y0152261D01*
X0329074Y0154163D01*
X0329074Y0156223D01*
X0328879Y0156694D01*
X0337795Y0165610D01*
X0338169Y0166514D01*
X0338169Y0186632D01*
X0338303Y0186766D01*
X0338661Y0187631D01*
X0339020Y0186766D01*
X0339880Y0185905D01*
X0341005Y0185439D01*
X0341195Y0185439D01*
X0348996Y0177638D01*
X0348996Y0164086D01*
X0348537Y0163627D01*
X0348759Y0164163D01*
X0348759Y0166223D01*
X0347971Y0168125D01*
X0346515Y0169581D01*
X0344612Y0170369D01*
X0342553Y0170369D01*
X0340650Y0169581D01*
X0339194Y0168125D01*
X0338406Y0166223D01*
X0338406Y0164163D01*
X0339194Y0162261D01*
X0340650Y0160805D01*
X0342127Y0160193D01*
X0340650Y0159581D01*
X0339194Y0158125D01*
X0338406Y0156223D01*
X0338406Y0154163D01*
X0339194Y0152261D01*
X0340650Y0150805D01*
X0342127Y0150193D01*
X0340650Y0149581D01*
X0339194Y0148125D01*
X0338406Y0146223D01*
X0338406Y0144163D01*
X0339194Y0142261D01*
X0340650Y0140805D01*
X0342553Y0140017D01*
X0344612Y0140017D01*
X0346515Y0140805D01*
X0347971Y0142261D01*
X0348759Y0144163D01*
X0348759Y0146223D01*
X0348759Y0144976D02*
X0348996Y0144976D01*
X0348996Y0143993D02*
X0348688Y0143993D01*
X0348996Y0143010D02*
X0348281Y0143010D01*
X0347738Y0142027D02*
X0348996Y0142027D01*
X0348996Y0141045D02*
X0346755Y0141045D01*
X0344721Y0140062D02*
X0348996Y0140062D01*
X0348996Y0139079D02*
X0311264Y0139079D01*
X0310610Y0138096D02*
X0348996Y0138096D01*
X0348996Y0137113D02*
X0310610Y0137113D01*
X0310610Y0136131D02*
X0348996Y0136131D01*
X0348996Y0135148D02*
X0310610Y0135148D01*
X0310610Y0134165D02*
X0313967Y0134165D01*
X0312984Y0133182D02*
X0311167Y0133182D01*
X0315716Y0133182D02*
X0316331Y0133182D01*
X0316331Y0132200D02*
X0315716Y0132200D01*
X0315716Y0131217D02*
X0316331Y0131217D01*
X0316331Y0130234D02*
X0315716Y0130234D01*
X0316332Y0129753D02*
X0316332Y0129137D01*
X0319105Y0129137D01*
X0323590Y0129137D01*
X0323590Y0129753D01*
X0316332Y0129753D01*
X0316332Y0129251D02*
X0323590Y0129251D01*
X0324206Y0129251D02*
X0338806Y0129251D01*
X0338806Y0128269D02*
X0328690Y0128269D01*
X0328516Y0127286D02*
X0338987Y0127286D01*
X0339970Y0126303D02*
X0327533Y0126303D01*
X0326550Y0125320D02*
X0340952Y0125320D01*
X0338806Y0130234D02*
X0328690Y0130234D01*
X0328690Y0131217D02*
X0338806Y0131217D01*
X0339583Y0132200D02*
X0327920Y0132200D01*
X0326937Y0133182D02*
X0340565Y0133182D01*
X0341548Y0134165D02*
X0325954Y0134165D01*
X0324206Y0134165D02*
X0323590Y0134165D01*
X0323590Y0133182D02*
X0324206Y0133182D01*
X0324206Y0132200D02*
X0323590Y0132200D01*
X0323590Y0131217D02*
X0324206Y0131217D01*
X0324206Y0130234D02*
X0323590Y0130234D01*
X0320858Y0133182D02*
X0319063Y0133182D01*
X0318080Y0134165D02*
X0321841Y0134165D01*
X0316331Y0134165D02*
X0315716Y0134165D01*
X0312246Y0140062D02*
X0322759Y0140062D01*
X0320726Y0141045D02*
X0313229Y0141045D01*
X0314212Y0142027D02*
X0319743Y0142027D01*
X0319199Y0143010D02*
X0315195Y0143010D01*
X0316177Y0143993D02*
X0318792Y0143993D01*
X0318721Y0144976D02*
X0317160Y0144976D01*
X0318143Y0145958D02*
X0318721Y0145958D01*
X0326086Y0149889D02*
X0341394Y0149889D01*
X0340583Y0150872D02*
X0326897Y0150872D01*
X0327880Y0151855D02*
X0339600Y0151855D01*
X0338955Y0152838D02*
X0328525Y0152838D01*
X0328932Y0153820D02*
X0338548Y0153820D01*
X0338406Y0154803D02*
X0329074Y0154803D01*
X0329074Y0155786D02*
X0338406Y0155786D01*
X0338633Y0156769D02*
X0328953Y0156769D01*
X0329936Y0157751D02*
X0339040Y0157751D01*
X0339804Y0158734D02*
X0330919Y0158734D01*
X0331902Y0159717D02*
X0340978Y0159717D01*
X0340904Y0160700D02*
X0332884Y0160700D01*
X0333867Y0161683D02*
X0339773Y0161683D01*
X0339027Y0162665D02*
X0334850Y0162665D01*
X0335833Y0163648D02*
X0338620Y0163648D01*
X0338406Y0164631D02*
X0336815Y0164631D01*
X0337796Y0165614D02*
X0338406Y0165614D01*
X0338561Y0166596D02*
X0338169Y0166596D01*
X0338169Y0167579D02*
X0338968Y0167579D01*
X0339631Y0168562D02*
X0338169Y0168562D01*
X0338169Y0169545D02*
X0340614Y0169545D01*
X0338169Y0170527D02*
X0348996Y0170527D01*
X0348996Y0169545D02*
X0346551Y0169545D01*
X0347534Y0168562D02*
X0348996Y0168562D01*
X0348996Y0167579D02*
X0348197Y0167579D01*
X0348604Y0166596D02*
X0348996Y0166596D01*
X0348996Y0165614D02*
X0348759Y0165614D01*
X0348759Y0164631D02*
X0348996Y0164631D01*
X0348558Y0163648D02*
X0348546Y0163648D01*
X0348996Y0171510D02*
X0338169Y0171510D01*
X0338169Y0172493D02*
X0348996Y0172493D01*
X0348996Y0173476D02*
X0338169Y0173476D01*
X0338169Y0174458D02*
X0348996Y0174458D01*
X0348996Y0175441D02*
X0338169Y0175441D01*
X0338169Y0176424D02*
X0348996Y0176424D01*
X0348996Y0177407D02*
X0338169Y0177407D01*
X0338169Y0178390D02*
X0348245Y0178390D01*
X0347262Y0179372D02*
X0338169Y0179372D01*
X0338169Y0180355D02*
X0346279Y0180355D01*
X0345297Y0181338D02*
X0338169Y0181338D01*
X0338169Y0182321D02*
X0344314Y0182321D01*
X0343331Y0183303D02*
X0338169Y0183303D01*
X0338169Y0184286D02*
X0342348Y0184286D01*
X0341365Y0185269D02*
X0338169Y0185269D01*
X0338169Y0186252D02*
X0339534Y0186252D01*
X0338826Y0187234D02*
X0338497Y0187234D01*
X0338324Y0190183D02*
X0338998Y0190183D01*
X0340051Y0191165D02*
X0337271Y0191165D01*
X0334146Y0191165D02*
X0331366Y0191165D01*
X0332419Y0190183D02*
X0333093Y0190183D01*
X0328240Y0191165D02*
X0325460Y0191165D01*
X0326513Y0190183D02*
X0327187Y0190183D01*
X0322335Y0191165D02*
X0217717Y0191165D01*
X0218700Y0190183D02*
X0316037Y0190183D01*
X0315055Y0189200D02*
X0219682Y0189200D01*
X0220665Y0188217D02*
X0314072Y0188217D01*
X0313089Y0187234D02*
X0221648Y0187234D01*
X0222631Y0186252D02*
X0312106Y0186252D01*
X0311124Y0185269D02*
X0223613Y0185269D01*
X0224596Y0184286D02*
X0310141Y0184286D01*
X0309158Y0183303D02*
X0225579Y0183303D01*
X0226562Y0182321D02*
X0308175Y0182321D01*
X0307193Y0181338D02*
X0227544Y0181338D01*
X0228527Y0180355D02*
X0306210Y0180355D01*
X0305227Y0179372D02*
X0229510Y0179372D01*
X0230493Y0178390D02*
X0304244Y0178390D01*
X0303262Y0177407D02*
X0231476Y0177407D01*
X0232458Y0176424D02*
X0302279Y0176424D01*
X0301296Y0175441D02*
X0233441Y0175441D01*
X0234424Y0174458D02*
X0300313Y0174458D01*
X0299330Y0173476D02*
X0235407Y0173476D01*
X0236389Y0172493D02*
X0298348Y0172493D01*
X0297365Y0171510D02*
X0237372Y0171510D01*
X0238355Y0170527D02*
X0296382Y0170527D01*
X0295399Y0169545D02*
X0287496Y0169545D01*
X0288479Y0168562D02*
X0294417Y0168562D01*
X0293434Y0167579D02*
X0289142Y0167579D01*
X0289549Y0166596D02*
X0292451Y0166596D01*
X0291468Y0165614D02*
X0289704Y0165614D01*
X0289704Y0164631D02*
X0290486Y0164631D01*
X0289503Y0163648D02*
X0289491Y0163648D01*
X0281848Y0160700D02*
X0248183Y0160700D01*
X0249165Y0159717D02*
X0281923Y0159717D01*
X0280748Y0158734D02*
X0250148Y0158734D01*
X0251131Y0157751D02*
X0279984Y0157751D01*
X0279577Y0156769D02*
X0252114Y0156769D01*
X0253096Y0155786D02*
X0279351Y0155786D01*
X0279351Y0154803D02*
X0254079Y0154803D01*
X0255062Y0153820D02*
X0279493Y0153820D01*
X0279900Y0152838D02*
X0256045Y0152838D01*
X0257027Y0151855D02*
X0280545Y0151855D01*
X0281528Y0150872D02*
X0258010Y0150872D01*
X0258993Y0149889D02*
X0282339Y0149889D01*
X0280921Y0148907D02*
X0259976Y0148907D01*
X0260958Y0147924D02*
X0280056Y0147924D01*
X0279649Y0146941D02*
X0261941Y0146941D01*
X0262924Y0145958D02*
X0279351Y0145958D01*
X0279351Y0144976D02*
X0263907Y0144976D01*
X0264889Y0143993D02*
X0279422Y0143993D01*
X0279829Y0143010D02*
X0265872Y0143010D01*
X0266855Y0142027D02*
X0280373Y0142027D01*
X0281355Y0141045D02*
X0267838Y0141045D01*
X0268821Y0140062D02*
X0283389Y0140062D01*
X0285666Y0140062D02*
X0289941Y0140062D01*
X0289941Y0141045D02*
X0287700Y0141045D01*
X0288682Y0142027D02*
X0289941Y0142027D01*
X0289941Y0143010D02*
X0289226Y0143010D01*
X0289633Y0143993D02*
X0289941Y0143993D01*
X0289941Y0144976D02*
X0289704Y0144976D01*
X0289704Y0145958D02*
X0289941Y0145958D01*
X0289941Y0139079D02*
X0269803Y0139079D01*
X0270786Y0138096D02*
X0289941Y0138096D01*
X0289941Y0137113D02*
X0271769Y0137113D01*
X0272752Y0136131D02*
X0289941Y0136131D01*
X0289941Y0135148D02*
X0273734Y0135148D01*
X0274717Y0134165D02*
X0282493Y0134165D01*
X0281510Y0133182D02*
X0275700Y0133182D01*
X0276683Y0132200D02*
X0280528Y0132200D01*
X0279751Y0131217D02*
X0277665Y0131217D01*
X0278648Y0130234D02*
X0279751Y0130234D01*
X0279751Y0129251D02*
X0279631Y0129251D01*
X0286562Y0134165D02*
X0289941Y0134165D01*
X0289384Y0133182D02*
X0287545Y0133182D01*
X0325036Y0140062D02*
X0342444Y0140062D01*
X0340411Y0141045D02*
X0327070Y0141045D01*
X0328052Y0142027D02*
X0339428Y0142027D01*
X0338884Y0143010D02*
X0328596Y0143010D01*
X0329003Y0143993D02*
X0338477Y0143993D01*
X0338406Y0144976D02*
X0329074Y0144976D01*
X0329074Y0145958D02*
X0338406Y0145958D01*
X0338704Y0146941D02*
X0328776Y0146941D01*
X0328369Y0147924D02*
X0339111Y0147924D01*
X0339976Y0148907D02*
X0327504Y0148907D01*
X0345617Y0134165D02*
X0348996Y0134165D01*
X0348439Y0133182D02*
X0346600Y0133182D01*
X0335933Y0111562D02*
X0366980Y0111562D01*
X0280717Y0161683D02*
X0247200Y0161683D01*
X0246217Y0162665D02*
X0279972Y0162665D01*
X0279565Y0163648D02*
X0245234Y0163648D01*
X0244251Y0164631D02*
X0279351Y0164631D01*
X0279351Y0165614D02*
X0243269Y0165614D01*
X0242286Y0166596D02*
X0279506Y0166596D01*
X0279913Y0167579D02*
X0241303Y0167579D01*
X0240320Y0168562D02*
X0280576Y0168562D01*
X0281559Y0169545D02*
X0239338Y0169545D01*
X0228852Y0171510D02*
X0201543Y0171510D01*
X0202526Y0172493D02*
X0227869Y0172493D01*
X0226886Y0173476D02*
X0203509Y0173476D01*
X0204492Y0174458D02*
X0225903Y0174458D01*
X0224921Y0175441D02*
X0205474Y0175441D01*
X0206457Y0176424D02*
X0223938Y0176424D01*
X0222955Y0177407D02*
X0207030Y0177407D01*
X0207264Y0178390D02*
X0221972Y0178390D01*
X0220989Y0179372D02*
X0207252Y0179372D01*
X0206844Y0180355D02*
X0220007Y0180355D01*
X0216734Y0192148D02*
X0397209Y0192148D01*
X0397209Y0193131D02*
X0215751Y0193131D01*
X0214769Y0194114D02*
X0397209Y0194114D01*
X0397209Y0195096D02*
X0213786Y0195096D01*
X0212803Y0196079D02*
X0397209Y0196079D01*
X0397209Y0197062D02*
X0211820Y0197062D01*
X0210837Y0198045D02*
X0397209Y0198045D01*
X0351862Y0191165D02*
X0349083Y0191165D01*
X0350135Y0190183D02*
X0350809Y0190183D01*
X0345957Y0191165D02*
X0343177Y0191165D01*
X0344230Y0190183D02*
X0344904Y0190183D01*
X0325866Y0202280D02*
X0171555Y0202280D01*
X0165000Y0208835D01*
X0160148Y0220648D02*
X0159852Y0220648D01*
X0159445Y0221631D02*
X0160555Y0221631D01*
X0161459Y0222614D02*
X0158541Y0222614D01*
X0157030Y0223597D02*
X0162970Y0223597D01*
X0167030Y0223597D02*
X0172970Y0223597D01*
X0171459Y0222614D02*
X0168541Y0222614D01*
X0169445Y0221631D02*
X0170555Y0221631D01*
X0170148Y0220648D02*
X0169852Y0220648D01*
X0177030Y0223597D02*
X0182970Y0223597D01*
X0181459Y0222614D02*
X0178541Y0222614D01*
X0179445Y0221631D02*
X0180555Y0221631D01*
X0180148Y0220648D02*
X0179852Y0220648D01*
X0187030Y0223597D02*
X0192970Y0223597D01*
X0191459Y0222614D02*
X0188541Y0222614D01*
X0189445Y0221631D02*
X0190555Y0221631D01*
X0190148Y0220648D02*
X0189852Y0220648D01*
X0197030Y0223597D02*
X0202970Y0223597D01*
X0201459Y0222614D02*
X0198541Y0222614D01*
X0199445Y0221631D02*
X0200555Y0221631D01*
X0200148Y0220648D02*
X0199852Y0220648D01*
X0207030Y0223597D02*
X0212970Y0223597D01*
X0211459Y0222614D02*
X0208541Y0222614D01*
X0209445Y0221631D02*
X0210555Y0221631D01*
X0210148Y0220648D02*
X0209852Y0220648D01*
X0217030Y0223597D02*
X0222970Y0223597D01*
X0221459Y0222614D02*
X0218541Y0222614D01*
X0219445Y0221631D02*
X0220555Y0221631D01*
X0220148Y0220648D02*
X0219852Y0220648D01*
X0227030Y0223597D02*
X0232970Y0223597D01*
X0231459Y0222614D02*
X0228541Y0222614D01*
X0229445Y0221631D02*
X0230555Y0221631D01*
X0230148Y0220648D02*
X0229852Y0220648D01*
X0237030Y0223597D02*
X0242970Y0223597D01*
X0241459Y0222614D02*
X0238541Y0222614D01*
X0239445Y0221631D02*
X0240555Y0221631D01*
X0240148Y0220648D02*
X0239852Y0220648D01*
X0247030Y0223597D02*
X0252970Y0223597D01*
X0251459Y0222614D02*
X0248541Y0222614D01*
X0249445Y0221631D02*
X0250555Y0221631D01*
X0250148Y0220648D02*
X0249852Y0220648D01*
X0257030Y0223597D02*
X0262970Y0223597D01*
X0261459Y0222614D02*
X0258541Y0222614D01*
X0259445Y0221631D02*
X0260555Y0221631D01*
X0260148Y0220648D02*
X0259852Y0220648D01*
X0267030Y0223597D02*
X0272970Y0223597D01*
X0271459Y0222614D02*
X0268541Y0222614D01*
X0269445Y0221631D02*
X0270555Y0221631D01*
X0270148Y0220648D02*
X0269852Y0220648D01*
X0277030Y0223597D02*
X0282970Y0223597D01*
X0281459Y0222614D02*
X0278541Y0222614D01*
X0279445Y0221631D02*
X0280555Y0221631D01*
X0280148Y0220648D02*
X0279852Y0220648D01*
X0287030Y0223597D02*
X0292970Y0223597D01*
X0291459Y0222614D02*
X0288541Y0222614D01*
X0289445Y0221631D02*
X0290555Y0221631D01*
X0290148Y0220648D02*
X0289852Y0220648D01*
X0297030Y0223597D02*
X0302970Y0223597D01*
X0301459Y0222614D02*
X0298541Y0222614D01*
X0299445Y0221631D02*
X0300555Y0221631D01*
X0300148Y0220648D02*
X0299852Y0220648D01*
X0321453Y0225562D02*
X0134511Y0225562D01*
X0137030Y0223597D02*
X0142970Y0223597D01*
X0141459Y0222614D02*
X0138541Y0222614D01*
X0139445Y0221631D02*
X0140555Y0221631D01*
X0140148Y0220648D02*
X0139852Y0220648D01*
X0147030Y0223597D02*
X0152970Y0223597D01*
X0151459Y0222614D02*
X0148541Y0222614D01*
X0149445Y0221631D02*
X0150555Y0221631D01*
X0150148Y0220648D02*
X0149852Y0220648D01*
X0126004Y0229839D02*
X0115000Y0218835D01*
X0110148Y0220648D02*
X0109852Y0220648D01*
X0109445Y0221631D02*
X0110555Y0221631D01*
X0111459Y0222614D02*
X0108541Y0222614D01*
X0107030Y0223597D02*
X0112970Y0223597D01*
X0117961Y0224579D02*
X0061610Y0224579D01*
X0061610Y0223597D02*
X0082909Y0223597D01*
X0084508Y0223597D02*
X0085492Y0223597D01*
X0085492Y0222614D02*
X0084508Y0222614D01*
X0084508Y0221631D02*
X0085492Y0221631D01*
X0085492Y0220648D02*
X0084508Y0220648D01*
X0084508Y0219666D02*
X0085492Y0219666D01*
X0084508Y0218683D02*
X0061610Y0218683D01*
X0061610Y0219666D02*
X0079875Y0219666D01*
X0080130Y0220648D02*
X0061610Y0220648D01*
X0061610Y0221631D02*
X0080614Y0221631D01*
X0081436Y0222614D02*
X0061610Y0222614D01*
X0061610Y0225562D02*
X0118944Y0225562D01*
X0119926Y0226545D02*
X0061610Y0226545D01*
X0061610Y0227528D02*
X0120909Y0227528D01*
X0121892Y0228510D02*
X0061610Y0228510D01*
X0061610Y0229493D02*
X0122875Y0229493D01*
X0123857Y0230476D02*
X0061610Y0230476D01*
X0061610Y0231459D02*
X0124840Y0231459D01*
X0126004Y0229839D02*
X0325866Y0229839D01*
X0397209Y0232441D02*
X0061610Y0232441D01*
X0061610Y0233424D02*
X0397209Y0233424D01*
X0397209Y0234407D02*
X0061610Y0234407D01*
X0061610Y0235390D02*
X0397209Y0235390D01*
X0212001Y0138096D02*
X0211385Y0138096D01*
X0211385Y0137113D02*
X0212001Y0137113D01*
X0212001Y0136131D02*
X0211385Y0136131D01*
X0211385Y0135148D02*
X0212001Y0135148D01*
X0212001Y0134165D02*
X0211385Y0134165D01*
X0208647Y0137113D02*
X0206842Y0137113D01*
X0205859Y0138096D02*
X0209630Y0138096D01*
X0203819Y0133382D02*
X0203819Y0166846D01*
X0201778Y0138096D02*
X0197985Y0138096D01*
X0198968Y0137113D02*
X0200796Y0137113D01*
X0200212Y0130234D02*
X0199552Y0130234D01*
X0198569Y0129251D02*
X0201195Y0129251D01*
X0206443Y0129251D02*
X0209046Y0129251D01*
X0208064Y0130234D02*
X0207426Y0130234D01*
X0193321Y0129251D02*
X0190695Y0129251D01*
X0191678Y0130234D02*
X0192338Y0130234D01*
X0103425Y0103854D02*
X0103425Y0042831D01*
X0107362Y0038894D01*
X0157559Y0038894D01*
X0165000Y0031453D01*
X0165000Y0028835D01*
X0169716Y0030975D02*
X0170284Y0030975D01*
X0170803Y0031958D02*
X0169197Y0031958D01*
X0168215Y0032941D02*
X0171785Y0032941D01*
X0173759Y0033923D02*
X0166241Y0033923D01*
X0164331Y0034906D02*
X0317992Y0034906D01*
X0317992Y0033923D02*
X0306062Y0033923D01*
X0305492Y0033923D02*
X0304508Y0033923D01*
X0303938Y0033923D02*
X0296062Y0033923D01*
X0295492Y0033923D02*
X0294508Y0033923D01*
X0293938Y0033923D02*
X0286241Y0033923D01*
X0288215Y0032941D02*
X0291818Y0032941D01*
X0290851Y0031958D02*
X0289197Y0031958D01*
X0289716Y0030975D02*
X0290263Y0030975D01*
X0294508Y0030975D02*
X0295492Y0030975D01*
X0295492Y0029992D02*
X0294508Y0029992D01*
X0295492Y0029327D02*
X0304508Y0029327D01*
X0304508Y0028343D01*
X0299821Y0028343D01*
X0295492Y0028343D01*
X0295492Y0029327D01*
X0295492Y0029009D02*
X0304508Y0029009D01*
X0304508Y0028027D02*
X0305492Y0028027D01*
X0305492Y0029009D02*
X0317992Y0029009D01*
X0317992Y0028027D02*
X0310129Y0028027D01*
X0309877Y0027044D02*
X0317992Y0027044D01*
X0317992Y0026061D02*
X0309403Y0026061D01*
X0308587Y0025078D02*
X0317992Y0025078D01*
X0317992Y0024096D02*
X0307136Y0024096D01*
X0307945Y0023113D02*
X0317992Y0023113D01*
X0317992Y0022130D02*
X0309023Y0022130D01*
X0309649Y0021147D02*
X0317992Y0021147D01*
X0317992Y0020165D02*
X0310027Y0020165D01*
X0310156Y0018199D02*
X0317992Y0018199D01*
X0317992Y0017216D02*
X0309933Y0017216D01*
X0309502Y0016234D02*
X0317992Y0016234D01*
X0317992Y0015251D02*
X0308759Y0015251D01*
X0307474Y0014268D02*
X0317992Y0014268D01*
X0317992Y0013285D02*
X0076358Y0013285D01*
X0076358Y0014268D02*
X0080077Y0014268D01*
X0079808Y0015251D02*
X0076358Y0015251D01*
X0076358Y0016234D02*
X0079808Y0016234D01*
X0079808Y0017216D02*
X0076358Y0017216D01*
X0076358Y0018199D02*
X0079808Y0018199D01*
X0079808Y0020165D02*
X0076358Y0020165D01*
X0076358Y0021147D02*
X0079808Y0021147D01*
X0079808Y0022130D02*
X0076358Y0022130D01*
X0076358Y0023113D02*
X0079911Y0023113D01*
X0081413Y0025078D02*
X0076358Y0025078D01*
X0076358Y0024096D02*
X0082864Y0024096D01*
X0084508Y0024096D02*
X0085492Y0024096D01*
X0085492Y0025078D02*
X0084508Y0025078D01*
X0084508Y0026061D02*
X0085492Y0026061D01*
X0085492Y0027044D02*
X0084508Y0027044D01*
X0084508Y0028027D02*
X0085492Y0028027D01*
X0084508Y0029009D02*
X0075451Y0029009D01*
X0076170Y0028027D02*
X0079871Y0028027D01*
X0080122Y0027044D02*
X0076358Y0027044D01*
X0076358Y0026061D02*
X0080597Y0026061D01*
X0084508Y0023113D02*
X0085492Y0023113D01*
X0085492Y0022130D02*
X0084508Y0022130D01*
X0084508Y0021147D02*
X0085492Y0021147D01*
X0085492Y0020165D02*
X0084508Y0020165D01*
X0084508Y0019182D02*
X0076358Y0019182D01*
X0084508Y0018199D02*
X0085492Y0018199D01*
X0085492Y0017216D02*
X0084508Y0017216D01*
X0084508Y0016234D02*
X0085492Y0016234D01*
X0085492Y0015251D02*
X0084508Y0015251D01*
X0084508Y0014268D02*
X0085492Y0014268D01*
X0089923Y0014268D02*
X0092498Y0014268D01*
X0091263Y0015251D02*
X0090192Y0015251D01*
X0090192Y0016234D02*
X0090475Y0016234D01*
X0097502Y0014268D02*
X0102498Y0014268D01*
X0101263Y0015251D02*
X0098737Y0015251D01*
X0099525Y0016234D02*
X0100475Y0016234D01*
X0100067Y0017216D02*
X0099933Y0017216D01*
X0107502Y0014268D02*
X0112498Y0014268D01*
X0111263Y0015251D02*
X0108737Y0015251D01*
X0109525Y0016234D02*
X0110475Y0016234D01*
X0110067Y0017216D02*
X0109933Y0017216D01*
X0117502Y0014268D02*
X0122498Y0014268D01*
X0121263Y0015251D02*
X0118737Y0015251D01*
X0119525Y0016234D02*
X0120475Y0016234D01*
X0120067Y0017216D02*
X0119933Y0017216D01*
X0127502Y0014268D02*
X0132498Y0014268D01*
X0131263Y0015251D02*
X0128737Y0015251D01*
X0129525Y0016234D02*
X0130475Y0016234D01*
X0130067Y0017216D02*
X0129933Y0017216D01*
X0137502Y0014268D02*
X0142498Y0014268D01*
X0141263Y0015251D02*
X0138737Y0015251D01*
X0139525Y0016234D02*
X0140475Y0016234D01*
X0140067Y0017216D02*
X0139933Y0017216D01*
X0147502Y0014268D02*
X0152498Y0014268D01*
X0151263Y0015251D02*
X0148737Y0015251D01*
X0149525Y0016234D02*
X0150475Y0016234D01*
X0150067Y0017216D02*
X0149933Y0017216D01*
X0157502Y0014268D02*
X0162498Y0014268D01*
X0161263Y0015251D02*
X0158737Y0015251D01*
X0159525Y0016234D02*
X0160475Y0016234D01*
X0160067Y0017216D02*
X0159933Y0017216D01*
X0165000Y0018835D02*
X0160118Y0023717D01*
X0160118Y0032398D01*
X0155591Y0036925D01*
X0106378Y0036925D01*
X0101457Y0041846D01*
X0105394Y0043751D02*
X0146472Y0043751D01*
X0146240Y0044734D02*
X0105394Y0044734D01*
X0105394Y0045716D02*
X0146240Y0045716D01*
X0145951Y0046699D02*
X0143576Y0046699D01*
X0144559Y0047682D02*
X0144969Y0047682D01*
X0151450Y0046699D02*
X0153803Y0046699D01*
X0152820Y0047682D02*
X0152433Y0047682D01*
X0151263Y0045716D02*
X0213169Y0045716D01*
X0208944Y0046699D02*
X0206568Y0046699D01*
X0207551Y0047682D02*
X0207961Y0047682D01*
X0201070Y0046699D02*
X0198694Y0046699D01*
X0199677Y0047682D02*
X0200087Y0047682D01*
X0193196Y0046699D02*
X0190820Y0046699D01*
X0191803Y0047682D02*
X0192213Y0047682D01*
X0185322Y0046699D02*
X0159346Y0046699D01*
X0158560Y0045913D02*
X0161367Y0048720D01*
X0161367Y0050397D01*
X0156883Y0050397D01*
X0156883Y0045913D01*
X0158560Y0045913D01*
X0156883Y0046699D02*
X0156267Y0046699D01*
X0156267Y0047682D02*
X0156883Y0047682D01*
X0156883Y0048665D02*
X0156267Y0048665D01*
X0156267Y0049648D02*
X0156883Y0049648D01*
X0156883Y0050630D02*
X0183294Y0050630D01*
X0183294Y0049648D02*
X0161367Y0049648D01*
X0161312Y0048665D02*
X0183356Y0048665D01*
X0184339Y0047682D02*
X0160329Y0047682D01*
X0161367Y0051013D02*
X0156883Y0051013D01*
X0156883Y0055497D01*
X0158560Y0055497D01*
X0161367Y0052690D01*
X0161367Y0051013D01*
X0161367Y0051613D02*
X0183294Y0051613D01*
X0183294Y0052596D02*
X0161367Y0052596D01*
X0160478Y0053579D02*
X0184190Y0053579D01*
X0185173Y0054561D02*
X0159495Y0054561D01*
X0156883Y0054561D02*
X0156267Y0054561D01*
X0156267Y0053579D02*
X0156883Y0053579D01*
X0156883Y0052596D02*
X0156267Y0052596D01*
X0156267Y0051613D02*
X0156883Y0051613D01*
X0153654Y0054561D02*
X0151599Y0054561D01*
X0152582Y0053579D02*
X0152672Y0053579D01*
X0137929Y0054561D02*
X0135851Y0054561D01*
X0136834Y0053579D02*
X0136946Y0053579D01*
X0130055Y0054561D02*
X0127977Y0054561D01*
X0128960Y0053579D02*
X0129072Y0053579D01*
X0122181Y0054561D02*
X0120103Y0054561D01*
X0121086Y0053579D02*
X0121198Y0053579D01*
X0114307Y0054561D02*
X0105394Y0054561D01*
X0105394Y0053579D02*
X0113324Y0053579D01*
X0112428Y0052596D02*
X0105394Y0052596D01*
X0105394Y0051613D02*
X0112428Y0051613D01*
X0112428Y0050630D02*
X0105394Y0050630D01*
X0105394Y0049648D02*
X0112428Y0049648D01*
X0112490Y0048665D02*
X0105394Y0048665D01*
X0105394Y0047682D02*
X0113473Y0047682D01*
X0114455Y0046699D02*
X0105394Y0046699D01*
X0106272Y0042768D02*
X0147252Y0042768D01*
X0148235Y0041785D02*
X0107254Y0041785D01*
X0105394Y0034957D02*
X0118878Y0034957D01*
X0125000Y0028835D01*
X0122329Y0046699D02*
X0119954Y0046699D01*
X0120937Y0047682D02*
X0121347Y0047682D01*
X0127828Y0046699D02*
X0130203Y0046699D01*
X0129221Y0047682D02*
X0128811Y0047682D01*
X0135702Y0046699D02*
X0138077Y0046699D01*
X0137095Y0047682D02*
X0136685Y0047682D01*
X0159417Y0039820D02*
X0392303Y0039820D01*
X0392303Y0040803D02*
X0352908Y0040803D01*
X0353891Y0041785D02*
X0392303Y0041785D01*
X0392303Y0042768D02*
X0354874Y0042768D01*
X0355654Y0043751D02*
X0392303Y0043751D01*
X0392303Y0044734D02*
X0355886Y0044734D01*
X0355886Y0045716D02*
X0392303Y0045716D01*
X0392303Y0046699D02*
X0371945Y0046699D01*
X0372928Y0047682D02*
X0392303Y0047682D01*
X0392303Y0048665D02*
X0373910Y0048665D01*
X0369481Y0048665D02*
X0368865Y0048665D01*
X0368865Y0049648D02*
X0369481Y0049648D01*
X0369481Y0047682D02*
X0368865Y0047682D01*
X0368865Y0046699D02*
X0369481Y0046699D01*
X0366402Y0046699D02*
X0364049Y0046699D01*
X0365031Y0047682D02*
X0365419Y0047682D01*
X0358550Y0046699D02*
X0356175Y0046699D01*
X0357157Y0047682D02*
X0357567Y0047682D01*
X0350676Y0046699D02*
X0348301Y0046699D01*
X0349283Y0047682D02*
X0349693Y0047682D01*
X0350863Y0045716D02*
X0288957Y0045716D01*
X0293182Y0046699D02*
X0295535Y0046699D01*
X0294553Y0047682D02*
X0294165Y0047682D01*
X0297999Y0047682D02*
X0298615Y0047682D01*
X0298615Y0046699D02*
X0297999Y0046699D01*
X0298615Y0045913D02*
X0300292Y0045913D01*
X0303099Y0048720D01*
X0303099Y0050397D01*
X0298615Y0050397D01*
X0298615Y0045913D01*
X0301079Y0046699D02*
X0327054Y0046699D01*
X0326071Y0047682D02*
X0302061Y0047682D01*
X0303044Y0048665D02*
X0325088Y0048665D01*
X0325027Y0049648D02*
X0303099Y0049648D01*
X0303099Y0051013D02*
X0298615Y0051013D01*
X0298615Y0055497D01*
X0300292Y0055497D01*
X0303099Y0052690D01*
X0303099Y0051013D01*
X0303099Y0051613D02*
X0325027Y0051613D01*
X0325027Y0050630D02*
X0298615Y0050630D01*
X0298615Y0049648D02*
X0297999Y0049648D01*
X0297999Y0048665D02*
X0298615Y0048665D01*
X0298615Y0051613D02*
X0297999Y0051613D01*
X0297999Y0052596D02*
X0298615Y0052596D01*
X0298615Y0053579D02*
X0297999Y0053579D01*
X0297999Y0054561D02*
X0298615Y0054561D01*
X0301228Y0054561D02*
X0326905Y0054561D01*
X0325922Y0053579D02*
X0302210Y0053579D01*
X0303099Y0052596D02*
X0325027Y0052596D01*
X0332701Y0054561D02*
X0334779Y0054561D01*
X0333796Y0053579D02*
X0333684Y0053579D01*
X0340575Y0054561D02*
X0342653Y0054561D01*
X0341670Y0053579D02*
X0341558Y0053579D01*
X0348449Y0054561D02*
X0350527Y0054561D01*
X0349544Y0053579D02*
X0349432Y0053579D01*
X0356323Y0054561D02*
X0358401Y0054561D01*
X0357418Y0053579D02*
X0357306Y0053579D01*
X0364197Y0054561D02*
X0366253Y0054561D01*
X0365270Y0053579D02*
X0365180Y0053579D01*
X0342802Y0046699D02*
X0340426Y0046699D01*
X0341409Y0047682D02*
X0341819Y0047682D01*
X0334928Y0046699D02*
X0332552Y0046699D01*
X0333535Y0047682D02*
X0333945Y0047682D01*
X0319961Y0038837D02*
X0392303Y0038837D01*
X0392303Y0037854D02*
X0319961Y0037854D01*
X0319961Y0036872D02*
X0392303Y0036872D01*
X0392303Y0035889D02*
X0319961Y0035889D01*
X0319961Y0034906D02*
X0392303Y0034906D01*
X0392303Y0033923D02*
X0319961Y0033923D01*
X0319961Y0032941D02*
X0392303Y0032941D01*
X0392303Y0031958D02*
X0319961Y0031958D01*
X0319961Y0030975D02*
X0392303Y0030975D01*
X0392303Y0029992D02*
X0319961Y0029992D01*
X0319961Y0029009D02*
X0392303Y0029009D01*
X0392303Y0028027D02*
X0319961Y0028027D01*
X0319961Y0027044D02*
X0392303Y0027044D01*
X0392303Y0026061D02*
X0319961Y0026061D01*
X0319961Y0025078D02*
X0392303Y0025078D01*
X0392303Y0024096D02*
X0319961Y0024096D01*
X0319961Y0023113D02*
X0392303Y0023113D01*
X0392303Y0022130D02*
X0319961Y0022130D01*
X0319961Y0021147D02*
X0392303Y0021147D01*
X0392303Y0020165D02*
X0319961Y0020165D01*
X0319961Y0019182D02*
X0324968Y0019182D01*
X0325850Y0020064D02*
X0323043Y0017257D01*
X0323043Y0015580D01*
X0327527Y0015580D01*
X0327527Y0020064D01*
X0325850Y0020064D01*
X0327527Y0019182D02*
X0328143Y0019182D01*
X0328143Y0020064D02*
X0328143Y0015580D01*
X0327527Y0015580D01*
X0327527Y0014964D01*
X0328143Y0014964D01*
X0328143Y0010480D01*
X0329820Y0010480D01*
X0331783Y0012443D01*
X0333730Y0010495D01*
X0337687Y0010495D01*
X0340485Y0013293D01*
X0340485Y0017250D01*
X0337687Y0020048D01*
X0333730Y0020048D01*
X0331783Y0018101D01*
X0329820Y0020064D01*
X0328143Y0020064D01*
X0328143Y0018199D02*
X0327527Y0018199D01*
X0327527Y0017216D02*
X0328143Y0017216D01*
X0328143Y0016234D02*
X0327527Y0016234D01*
X0327527Y0015251D02*
X0319961Y0015251D01*
X0319961Y0016234D02*
X0323043Y0016234D01*
X0323043Y0017216D02*
X0319961Y0017216D01*
X0319961Y0018199D02*
X0323985Y0018199D01*
X0323043Y0014964D02*
X0323043Y0013287D01*
X0325850Y0010480D01*
X0327527Y0010480D01*
X0327527Y0014964D01*
X0323043Y0014964D01*
X0323043Y0014268D02*
X0319961Y0014268D01*
X0319961Y0013285D02*
X0323044Y0013285D01*
X0324027Y0012303D02*
X0319961Y0012303D01*
X0319961Y0011320D02*
X0325009Y0011320D01*
X0327527Y0011320D02*
X0328143Y0011320D01*
X0328143Y0012303D02*
X0327527Y0012303D01*
X0327527Y0013285D02*
X0328143Y0013285D01*
X0328143Y0014268D02*
X0327527Y0014268D01*
X0330660Y0011320D02*
X0332906Y0011320D01*
X0331923Y0012303D02*
X0331643Y0012303D01*
X0331684Y0018199D02*
X0331881Y0018199D01*
X0332864Y0019182D02*
X0330702Y0019182D01*
X0338553Y0019182D02*
X0376149Y0019182D01*
X0377031Y0020064D02*
X0374224Y0017257D01*
X0374224Y0015580D01*
X0378708Y0015580D01*
X0378708Y0020064D01*
X0377031Y0020064D01*
X0378708Y0019182D02*
X0379324Y0019182D01*
X0379324Y0020064D02*
X0379324Y0015580D01*
X0378708Y0015580D01*
X0378708Y0014964D01*
X0374224Y0014964D01*
X0374224Y0013287D01*
X0377031Y0010480D01*
X0378708Y0010480D01*
X0378708Y0014964D01*
X0379324Y0014964D01*
X0379324Y0010480D01*
X0381001Y0010480D01*
X0382964Y0012443D01*
X0384911Y0010495D01*
X0388868Y0010495D01*
X0391666Y0013293D01*
X0391666Y0017250D01*
X0388868Y0020048D01*
X0384911Y0020048D01*
X0382964Y0018101D01*
X0381001Y0020064D01*
X0379324Y0020064D01*
X0379324Y0018199D02*
X0378708Y0018199D01*
X0378708Y0017216D02*
X0379324Y0017216D01*
X0379324Y0016234D02*
X0378708Y0016234D01*
X0378708Y0015251D02*
X0340485Y0015251D01*
X0340485Y0016234D02*
X0374224Y0016234D01*
X0374224Y0017216D02*
X0340485Y0017216D01*
X0339536Y0018199D02*
X0375166Y0018199D01*
X0374224Y0014268D02*
X0340485Y0014268D01*
X0340477Y0013285D02*
X0374225Y0013285D01*
X0375208Y0012303D02*
X0339494Y0012303D01*
X0338512Y0011320D02*
X0376191Y0011320D01*
X0378708Y0011320D02*
X0379324Y0011320D01*
X0379324Y0012303D02*
X0378708Y0012303D01*
X0378708Y0013285D02*
X0379324Y0013285D01*
X0379324Y0014268D02*
X0378708Y0014268D01*
X0381841Y0011320D02*
X0384087Y0011320D01*
X0383104Y0012303D02*
X0382824Y0012303D01*
X0382865Y0018199D02*
X0383062Y0018199D01*
X0384045Y0019182D02*
X0381883Y0019182D01*
X0389734Y0019182D02*
X0392303Y0019182D01*
X0392303Y0018199D02*
X0390717Y0018199D01*
X0391666Y0017216D02*
X0392303Y0017216D01*
X0392303Y0016234D02*
X0391666Y0016234D01*
X0391666Y0015251D02*
X0392303Y0015251D01*
X0392303Y0014268D02*
X0391666Y0014268D01*
X0391658Y0013285D02*
X0392303Y0013285D01*
X0392252Y0012303D02*
X0390675Y0012303D01*
X0391269Y0011320D02*
X0389693Y0011320D01*
X0390286Y0010337D02*
X0319961Y0010337D01*
X0317992Y0010337D02*
X0078375Y0010337D01*
X0077392Y0011320D02*
X0317992Y0011320D01*
X0317992Y0012303D02*
X0076410Y0012303D01*
X0074468Y0029992D02*
X0079927Y0029992D01*
X0080263Y0030975D02*
X0073485Y0030975D01*
X0072502Y0031958D02*
X0080851Y0031958D01*
X0081818Y0032941D02*
X0071520Y0032941D01*
X0083938Y0033923D02*
X0058726Y0033923D01*
X0042850Y0035889D02*
X0006492Y0035889D01*
X0006492Y0036872D02*
X0041040Y0036872D01*
X0040057Y0037854D02*
X0006492Y0037854D01*
X0006492Y0038837D02*
X0039606Y0038837D01*
X0039199Y0039820D02*
X0006492Y0039820D01*
X0006492Y0040803D02*
X0039194Y0040803D01*
X0039194Y0041785D02*
X0006492Y0041785D01*
X0006492Y0042768D02*
X0039557Y0042768D01*
X0039964Y0043751D02*
X0006492Y0043751D01*
X0006492Y0044734D02*
X0040921Y0044734D01*
X0042563Y0045716D02*
X0006492Y0045716D01*
X0084508Y0033923D02*
X0085492Y0033923D01*
X0086062Y0033923D02*
X0093759Y0033923D01*
X0091785Y0032941D02*
X0088182Y0032941D01*
X0089149Y0031958D02*
X0090803Y0031958D01*
X0090284Y0030975D02*
X0089737Y0030975D01*
X0085492Y0030975D02*
X0084508Y0030975D01*
X0084508Y0029992D02*
X0085492Y0029992D01*
X0085492Y0031958D02*
X0084508Y0031958D01*
X0084508Y0032941D02*
X0085492Y0032941D01*
X0162365Y0036872D02*
X0317992Y0036872D01*
X0317992Y0035889D02*
X0163348Y0035889D01*
X0176241Y0033923D02*
X0183759Y0033923D01*
X0181785Y0032941D02*
X0178215Y0032941D01*
X0179197Y0031958D02*
X0180803Y0031958D01*
X0180284Y0030975D02*
X0179716Y0030975D01*
X0186241Y0033923D02*
X0193759Y0033923D01*
X0191785Y0032941D02*
X0188215Y0032941D01*
X0189197Y0031958D02*
X0190803Y0031958D01*
X0190284Y0030975D02*
X0189716Y0030975D01*
X0196241Y0033923D02*
X0203759Y0033923D01*
X0201785Y0032941D02*
X0198215Y0032941D01*
X0199197Y0031958D02*
X0200803Y0031958D01*
X0200284Y0030975D02*
X0199716Y0030975D01*
X0206241Y0033923D02*
X0213759Y0033923D01*
X0211785Y0032941D02*
X0208215Y0032941D01*
X0209197Y0031958D02*
X0210803Y0031958D01*
X0210284Y0030975D02*
X0209716Y0030975D01*
X0216241Y0033923D02*
X0223759Y0033923D01*
X0221785Y0032941D02*
X0218215Y0032941D01*
X0219197Y0031958D02*
X0220803Y0031958D01*
X0220284Y0030975D02*
X0219716Y0030975D01*
X0226241Y0033923D02*
X0233759Y0033923D01*
X0231785Y0032941D02*
X0228215Y0032941D01*
X0229197Y0031958D02*
X0230803Y0031958D01*
X0230284Y0030975D02*
X0229716Y0030975D01*
X0236241Y0033923D02*
X0243759Y0033923D01*
X0241785Y0032941D02*
X0238215Y0032941D01*
X0239197Y0031958D02*
X0240803Y0031958D01*
X0240284Y0030975D02*
X0239716Y0030975D01*
X0246241Y0033923D02*
X0253759Y0033923D01*
X0251785Y0032941D02*
X0248215Y0032941D01*
X0249197Y0031958D02*
X0250803Y0031958D01*
X0250284Y0030975D02*
X0249716Y0030975D01*
X0256241Y0033923D02*
X0263759Y0033923D01*
X0261785Y0032941D02*
X0258215Y0032941D01*
X0259197Y0031958D02*
X0260803Y0031958D01*
X0260284Y0030975D02*
X0259716Y0030975D01*
X0266241Y0033923D02*
X0273759Y0033923D01*
X0271785Y0032941D02*
X0268215Y0032941D01*
X0269197Y0031958D02*
X0270803Y0031958D01*
X0270284Y0030975D02*
X0269716Y0030975D01*
X0276241Y0033923D02*
X0283759Y0033923D01*
X0281785Y0032941D02*
X0278215Y0032941D01*
X0279197Y0031958D02*
X0280803Y0031958D01*
X0280284Y0030975D02*
X0279716Y0030975D01*
X0294508Y0031958D02*
X0295492Y0031958D01*
X0295492Y0032941D02*
X0294508Y0032941D01*
X0298182Y0032941D02*
X0301818Y0032941D01*
X0300851Y0031958D02*
X0299149Y0031958D01*
X0299737Y0030975D02*
X0300263Y0030975D01*
X0304508Y0030975D02*
X0305492Y0030975D01*
X0305492Y0029992D02*
X0304508Y0029992D01*
X0304508Y0031958D02*
X0305492Y0031958D01*
X0305492Y0032941D02*
X0304508Y0032941D01*
X0308182Y0032941D02*
X0317992Y0032941D01*
X0317992Y0031958D02*
X0309149Y0031958D01*
X0309737Y0030975D02*
X0317992Y0030975D01*
X0317992Y0029992D02*
X0310073Y0029992D01*
X0305492Y0027044D02*
X0304508Y0027044D01*
X0304508Y0026061D02*
X0305492Y0026061D01*
X0305492Y0025078D02*
X0304508Y0025078D01*
X0304508Y0024096D02*
X0305492Y0024096D01*
X0305492Y0023113D02*
X0304508Y0023113D01*
X0304508Y0022130D02*
X0305492Y0022130D01*
X0305492Y0021147D02*
X0304508Y0021147D01*
X0304508Y0020165D02*
X0305492Y0020165D01*
X0305492Y0019182D02*
X0317992Y0019182D01*
X0305492Y0018199D02*
X0304508Y0018199D01*
X0304508Y0018343D02*
X0299821Y0018343D01*
X0295492Y0018343D01*
X0295492Y0019327D01*
X0294508Y0019327D01*
X0294508Y0028342D01*
X0295492Y0028342D01*
X0295492Y0023656D01*
X0295492Y0019327D01*
X0304508Y0019327D01*
X0304508Y0018343D01*
X0304508Y0019182D02*
X0295492Y0019182D01*
X0295492Y0020165D02*
X0294508Y0020165D01*
X0294508Y0021147D02*
X0295492Y0021147D01*
X0295492Y0022130D02*
X0294508Y0022130D01*
X0294508Y0023113D02*
X0295492Y0023113D01*
X0295492Y0024096D02*
X0294508Y0024096D01*
X0294508Y0025078D02*
X0295492Y0025078D01*
X0295492Y0026061D02*
X0294508Y0026061D01*
X0294508Y0027044D02*
X0295492Y0027044D01*
X0295492Y0028027D02*
X0294508Y0028027D01*
X0294508Y0018199D02*
X0295492Y0018199D01*
X0295492Y0017216D02*
X0294508Y0017216D01*
X0294508Y0016234D02*
X0295492Y0016234D01*
X0295492Y0015251D02*
X0294508Y0015251D01*
X0294508Y0014268D02*
X0295492Y0014268D01*
X0297474Y0014268D02*
X0302526Y0014268D01*
X0301241Y0015251D02*
X0298759Y0015251D01*
X0299502Y0016234D02*
X0300498Y0016234D01*
X0300066Y0017216D02*
X0299933Y0017216D01*
X0304508Y0017216D02*
X0305492Y0017216D01*
X0305492Y0016234D02*
X0304508Y0016234D01*
X0304508Y0015251D02*
X0305492Y0015251D01*
X0305492Y0014268D02*
X0304508Y0014268D01*
X0292526Y0014268D02*
X0287502Y0014268D01*
X0288737Y0015251D02*
X0291241Y0015251D01*
X0290498Y0016234D02*
X0289525Y0016234D01*
X0289933Y0017216D02*
X0290066Y0017216D01*
X0282498Y0014268D02*
X0277502Y0014268D01*
X0278737Y0015251D02*
X0281263Y0015251D01*
X0280475Y0016234D02*
X0279525Y0016234D01*
X0279933Y0017216D02*
X0280067Y0017216D01*
X0272498Y0014268D02*
X0267502Y0014268D01*
X0268737Y0015251D02*
X0271263Y0015251D01*
X0270475Y0016234D02*
X0269525Y0016234D01*
X0269933Y0017216D02*
X0270067Y0017216D01*
X0262498Y0014268D02*
X0257502Y0014268D01*
X0258737Y0015251D02*
X0261263Y0015251D01*
X0260475Y0016234D02*
X0259525Y0016234D01*
X0259933Y0017216D02*
X0260067Y0017216D01*
X0252498Y0014268D02*
X0247502Y0014268D01*
X0248737Y0015251D02*
X0251263Y0015251D01*
X0250475Y0016234D02*
X0249525Y0016234D01*
X0249933Y0017216D02*
X0250067Y0017216D01*
X0242498Y0014268D02*
X0237502Y0014268D01*
X0238737Y0015251D02*
X0241263Y0015251D01*
X0240475Y0016234D02*
X0239525Y0016234D01*
X0239933Y0017216D02*
X0240067Y0017216D01*
X0232498Y0014268D02*
X0227502Y0014268D01*
X0228737Y0015251D02*
X0231263Y0015251D01*
X0230475Y0016234D02*
X0229525Y0016234D01*
X0229933Y0017216D02*
X0230067Y0017216D01*
X0222498Y0014268D02*
X0217502Y0014268D01*
X0218737Y0015251D02*
X0221263Y0015251D01*
X0220475Y0016234D02*
X0219525Y0016234D01*
X0219933Y0017216D02*
X0220067Y0017216D01*
X0212498Y0014268D02*
X0207502Y0014268D01*
X0208737Y0015251D02*
X0211263Y0015251D01*
X0210475Y0016234D02*
X0209525Y0016234D01*
X0209933Y0017216D02*
X0210067Y0017216D01*
X0202498Y0014268D02*
X0197502Y0014268D01*
X0198737Y0015251D02*
X0201263Y0015251D01*
X0200475Y0016234D02*
X0199525Y0016234D01*
X0199933Y0017216D02*
X0200067Y0017216D01*
X0192498Y0014268D02*
X0187502Y0014268D01*
X0188737Y0015251D02*
X0191263Y0015251D01*
X0190475Y0016234D02*
X0189525Y0016234D01*
X0189933Y0017216D02*
X0190067Y0017216D01*
X0182498Y0014268D02*
X0177502Y0014268D01*
X0178737Y0015251D02*
X0181263Y0015251D01*
X0180475Y0016234D02*
X0179525Y0016234D01*
X0179933Y0017216D02*
X0180067Y0017216D01*
X0172498Y0014268D02*
X0167502Y0014268D01*
X0168737Y0015251D02*
X0171263Y0015251D01*
X0170475Y0016234D02*
X0169525Y0016234D01*
X0169933Y0017216D02*
X0170067Y0017216D01*
X0218091Y0045716D02*
X0284035Y0045716D01*
X0279810Y0046699D02*
X0277434Y0046699D01*
X0278417Y0047682D02*
X0278827Y0047682D01*
X0271936Y0046699D02*
X0269560Y0046699D01*
X0270543Y0047682D02*
X0270953Y0047682D01*
X0264062Y0046699D02*
X0261686Y0046699D01*
X0262669Y0047682D02*
X0263079Y0047682D01*
X0256188Y0046699D02*
X0230213Y0046699D01*
X0229426Y0045913D02*
X0232233Y0048720D01*
X0232233Y0050397D01*
X0227749Y0050397D01*
X0227749Y0045913D01*
X0229426Y0045913D01*
X0227749Y0046699D02*
X0227133Y0046699D01*
X0227133Y0047682D02*
X0227749Y0047682D01*
X0227749Y0048665D02*
X0227133Y0048665D01*
X0227133Y0049648D02*
X0227749Y0049648D01*
X0227749Y0050630D02*
X0254161Y0050630D01*
X0254161Y0049648D02*
X0232233Y0049648D01*
X0232178Y0048665D02*
X0254222Y0048665D01*
X0255205Y0047682D02*
X0231195Y0047682D01*
X0224669Y0046699D02*
X0222316Y0046699D01*
X0223299Y0047682D02*
X0223687Y0047682D01*
X0227133Y0051613D02*
X0227749Y0051613D01*
X0227749Y0051013D02*
X0227749Y0055497D01*
X0229426Y0055497D01*
X0232233Y0052690D01*
X0232233Y0051013D01*
X0227749Y0051013D01*
X0227749Y0052596D02*
X0227133Y0052596D01*
X0227133Y0053579D02*
X0227749Y0053579D01*
X0227749Y0054561D02*
X0227133Y0054561D01*
X0224520Y0054561D02*
X0222465Y0054561D01*
X0223448Y0053579D02*
X0223538Y0053579D01*
X0216669Y0054561D02*
X0214591Y0054561D01*
X0215574Y0053579D02*
X0215686Y0053579D01*
X0208795Y0054561D02*
X0206717Y0054561D01*
X0207700Y0053579D02*
X0207812Y0053579D01*
X0200921Y0054561D02*
X0198843Y0054561D01*
X0199826Y0053579D02*
X0199938Y0053579D01*
X0193047Y0054561D02*
X0190969Y0054561D01*
X0191952Y0053579D02*
X0192064Y0053579D01*
X0230361Y0054561D02*
X0256039Y0054561D01*
X0255056Y0053579D02*
X0231344Y0053579D01*
X0232233Y0052596D02*
X0254161Y0052596D01*
X0254161Y0051613D02*
X0232233Y0051613D01*
X0261835Y0054561D02*
X0263913Y0054561D01*
X0262930Y0053579D02*
X0262818Y0053579D01*
X0269709Y0054561D02*
X0271787Y0054561D01*
X0270804Y0053579D02*
X0270692Y0053579D01*
X0277583Y0054561D02*
X0279661Y0054561D01*
X0278678Y0053579D02*
X0278566Y0053579D01*
X0285457Y0054561D02*
X0287535Y0054561D01*
X0286552Y0053579D02*
X0286440Y0053579D01*
X0293331Y0054561D02*
X0295387Y0054561D01*
X0294404Y0053579D02*
X0294314Y0053579D01*
X0113287Y0203941D02*
X0106713Y0203941D01*
X0108410Y0204924D02*
X0111590Y0204924D01*
X0110610Y0205907D02*
X0109390Y0205907D01*
X0109797Y0206890D02*
X0110203Y0206890D01*
X0103287Y0203941D02*
X0096713Y0203941D01*
X0098410Y0204924D02*
X0101590Y0204924D01*
X0100610Y0205907D02*
X0099390Y0205907D01*
X0099797Y0206890D02*
X0100203Y0206890D01*
X0093287Y0203941D02*
X0089617Y0203941D01*
X0090188Y0204924D02*
X0091590Y0204924D01*
X0090610Y0205907D02*
X0090192Y0205907D01*
X0090192Y0206890D02*
X0090203Y0206890D01*
X0085492Y0206890D02*
X0084508Y0206890D01*
X0084508Y0207872D02*
X0085492Y0207872D01*
X0084508Y0208855D02*
X0061610Y0208855D01*
X0061610Y0207872D02*
X0079808Y0207872D01*
X0079808Y0206890D02*
X0061610Y0206890D01*
X0061610Y0205907D02*
X0079808Y0205907D01*
X0079812Y0204924D02*
X0061610Y0204924D01*
X0061610Y0203941D02*
X0080383Y0203941D01*
X0084508Y0203941D02*
X0085492Y0203941D01*
X0085492Y0204924D02*
X0084508Y0204924D01*
X0084508Y0205907D02*
X0085492Y0205907D01*
X0085492Y0209838D02*
X0084508Y0209838D01*
X0084508Y0210821D02*
X0085492Y0210821D01*
X0085492Y0211803D02*
X0084508Y0211803D01*
X0084508Y0212786D02*
X0085492Y0212786D01*
X0085492Y0213769D02*
X0084508Y0213769D01*
X0084508Y0214752D02*
X0085492Y0214752D01*
X0085492Y0215735D02*
X0084508Y0215735D01*
X0084508Y0216717D02*
X0085492Y0216717D01*
X0085492Y0217700D02*
X0084508Y0217700D01*
X0080835Y0215735D02*
X0061610Y0215735D01*
X0061610Y0216717D02*
X0080252Y0216717D01*
X0079923Y0217700D02*
X0061610Y0217700D01*
X0061610Y0214752D02*
X0081786Y0214752D01*
X0080454Y0213769D02*
X0061610Y0213769D01*
X0061610Y0212786D02*
X0079823Y0212786D01*
X0079808Y0211803D02*
X0061610Y0211803D01*
X0061610Y0210821D02*
X0079808Y0210821D01*
X0079808Y0209838D02*
X0061610Y0209838D01*
X0087091Y0223597D02*
X0092970Y0223597D01*
X0091459Y0222614D02*
X0088564Y0222614D01*
X0089386Y0221631D02*
X0090555Y0221631D01*
X0090148Y0220648D02*
X0089870Y0220648D01*
X0097030Y0223597D02*
X0102970Y0223597D01*
X0101459Y0222614D02*
X0098541Y0222614D01*
X0099445Y0221631D02*
X0100555Y0221631D01*
X0100148Y0220648D02*
X0099852Y0220648D01*
D14*
X0150669Y0196374D03*
X0154606Y0192437D03*
X0203819Y0178657D03*
X0203819Y0166846D03*
X0316024Y0212122D03*
X0319961Y0212122D03*
X0333740Y0212122D03*
X0337677Y0212122D03*
X0343583Y0212122D03*
X0359331Y0212122D03*
X0353425Y0188500D03*
X0347520Y0188500D03*
X0341614Y0188500D03*
X0335709Y0188500D03*
X0329803Y0188500D03*
X0323898Y0188500D03*
X0333740Y0113697D03*
X0369173Y0113697D03*
X0379016Y0050705D03*
X0379016Y0046768D03*
X0319961Y0046768D03*
X0319961Y0050705D03*
X0308150Y0050705D03*
X0308150Y0046768D03*
X0249094Y0046768D03*
X0249094Y0050705D03*
X0237283Y0050705D03*
X0237283Y0046768D03*
X0235315Y0078264D03*
X0245157Y0078264D03*
X0178228Y0050705D03*
X0178228Y0046768D03*
X0166417Y0046768D03*
X0166417Y0050705D03*
X0164449Y0078264D03*
X0174291Y0078264D03*
X0107362Y0050705D03*
X0107362Y0046768D03*
X0068976Y0056610D03*
D15*
X0164449Y0078264D02*
X0174291Y0078264D01*
X0235315Y0078264D02*
X0245157Y0078264D01*
X0188071Y0133382D02*
X0188071Y0162909D01*
X0203819Y0178657D01*
D16*
X0168386Y0133382D02*
X0148701Y0113697D01*
X0148701Y0050705D01*
X0148701Y0044799D01*
X0150669Y0042831D01*
X0215630Y0042831D01*
X0215630Y0050705D01*
X0211693Y0050705D01*
X0215630Y0042831D02*
X0286496Y0042831D01*
X0286496Y0050705D01*
X0290433Y0050705D01*
X0286496Y0042831D02*
X0351457Y0042831D01*
X0353425Y0044799D01*
X0353425Y0050705D01*
X0394764Y0011335D02*
X0394764Y0118618D01*
X0390827Y0122555D01*
X0343583Y0122555D01*
X0343583Y0129445D01*
X0351457Y0129445D02*
X0351457Y0147319D01*
X0343583Y0155193D01*
X0351457Y0163067D01*
X0351457Y0178657D01*
X0341614Y0188500D01*
X0347520Y0188500D02*
X0355394Y0180626D01*
X0355394Y0163067D01*
X0363268Y0155193D01*
X0355394Y0147319D01*
X0355394Y0133382D01*
X0359331Y0129445D01*
X0367205Y0129445D02*
X0367205Y0139445D01*
X0382953Y0155193D01*
X0382953Y0157004D01*
X0353425Y0188500D01*
X0335709Y0188500D02*
X0335709Y0167004D01*
X0323898Y0155193D01*
X0308150Y0139445D01*
X0308150Y0129445D01*
X0300276Y0129445D02*
X0296339Y0133382D01*
X0296339Y0147319D01*
X0304213Y0155193D01*
X0329803Y0180783D01*
X0329803Y0188500D01*
X0323898Y0188500D02*
X0317835Y0188500D01*
X0284528Y0155193D01*
X0292402Y0147319D01*
X0292402Y0129445D01*
X0291417Y0122555D02*
X0284528Y0129445D01*
X0291417Y0122555D02*
X0343583Y0122555D01*
X0160512Y0133382D02*
X0144764Y0117634D01*
X0144764Y0082201D01*
X0073898Y0027083D02*
X0069961Y0031020D01*
X0058150Y0031020D01*
X0054370Y0034799D01*
X0054370Y0040862D01*
X0073898Y0027083D02*
X0073898Y0011335D01*
X0077835Y0007398D01*
X0390827Y0007398D01*
X0394764Y0011335D01*
X0105000Y0018815D02*
X0105000Y0018835D01*
M02*
