G75*
%MOIN*%
%OFA0B0*%
%FSLAX25Y25*%
%IPPOS*%
%LPD*%
%AMOC8*
5,1,8,0,0,1.08239X$1,22.5*
%
%ADD10OC8,0.07000*%
%ADD11R,0.07800X0.07800*%
%ADD12C,0.07800*%
D10*
X0016811Y0015272D03*
X0024685Y0015272D03*
X0117205Y0050705D03*
X0125079Y0050705D03*
X0132953Y0050705D03*
X0140827Y0050705D03*
X0148701Y0050705D03*
X0156575Y0050705D03*
X0188071Y0050705D03*
X0195945Y0050705D03*
X0203819Y0050705D03*
X0211693Y0050705D03*
X0219567Y0050705D03*
X0227441Y0050705D03*
X0258937Y0050705D03*
X0266811Y0050705D03*
X0274685Y0050705D03*
X0282559Y0050705D03*
X0290433Y0050705D03*
X0298307Y0050705D03*
X0329803Y0050705D03*
X0337677Y0050705D03*
X0345551Y0050705D03*
X0353425Y0050705D03*
X0361299Y0050705D03*
X0369173Y0050705D03*
X0379016Y0015272D03*
X0386890Y0015272D03*
X0335709Y0015272D03*
X0327835Y0015272D03*
X0323898Y0129445D03*
X0316024Y0129445D03*
X0308150Y0129445D03*
X0300276Y0129445D03*
X0292402Y0129445D03*
X0284528Y0129445D03*
X0343583Y0129445D03*
X0351457Y0129445D03*
X0359331Y0129445D03*
X0367205Y0129445D03*
X0375079Y0129445D03*
X0382953Y0129445D03*
X0211693Y0133382D03*
X0203819Y0133382D03*
X0195945Y0133382D03*
X0188071Y0133382D03*
X0168386Y0133382D03*
X0160512Y0133382D03*
X0140827Y0133382D03*
X0132953Y0133382D03*
X0125079Y0133382D03*
X0117205Y0133382D03*
D11*
X0085000Y0208835D03*
X0085000Y0018835D03*
X0044370Y0015272D03*
D12*
X0054370Y0015272D03*
X0064370Y0015272D03*
X0085000Y0028835D03*
X0095000Y0028835D03*
X0105000Y0028835D03*
X0115000Y0028835D03*
X0125000Y0028835D03*
X0135000Y0028835D03*
X0145000Y0028835D03*
X0155000Y0028835D03*
X0165000Y0028835D03*
X0175000Y0028835D03*
X0185000Y0028835D03*
X0195000Y0028835D03*
X0205000Y0028835D03*
X0215000Y0028835D03*
X0225000Y0028835D03*
X0235000Y0028835D03*
X0245000Y0028835D03*
X0255000Y0028835D03*
X0265000Y0028835D03*
X0275000Y0028835D03*
X0285000Y0028835D03*
X0295000Y0028835D03*
X0305000Y0028835D03*
X0305000Y0018835D03*
X0295000Y0018835D03*
X0285000Y0018835D03*
X0275000Y0018835D03*
X0265000Y0018835D03*
X0255000Y0018835D03*
X0245000Y0018835D03*
X0235000Y0018835D03*
X0225000Y0018835D03*
X0215000Y0018835D03*
X0205000Y0018835D03*
X0195000Y0018835D03*
X0185000Y0018835D03*
X0175000Y0018835D03*
X0165000Y0018835D03*
X0155000Y0018835D03*
X0145000Y0018835D03*
X0135000Y0018835D03*
X0125000Y0018835D03*
X0115000Y0018835D03*
X0105000Y0018835D03*
X0095000Y0018835D03*
X0064370Y0040862D03*
X0054370Y0040862D03*
X0044370Y0040862D03*
X0284528Y0145193D03*
X0284528Y0155193D03*
X0284528Y0165193D03*
X0304213Y0165193D03*
X0323898Y0165193D03*
X0323898Y0155193D03*
X0323898Y0145193D03*
X0304213Y0145193D03*
X0304213Y0155193D03*
X0343583Y0155193D03*
X0343583Y0145193D03*
X0363268Y0145193D03*
X0363268Y0155193D03*
X0363268Y0165193D03*
X0382953Y0165193D03*
X0382953Y0155193D03*
X0382953Y0145193D03*
X0343583Y0165193D03*
X0305000Y0208835D03*
X0295000Y0208835D03*
X0285000Y0208835D03*
X0275000Y0208835D03*
X0265000Y0208835D03*
X0255000Y0208835D03*
X0245000Y0208835D03*
X0235000Y0208835D03*
X0225000Y0208835D03*
X0215000Y0208835D03*
X0205000Y0208835D03*
X0195000Y0208835D03*
X0185000Y0208835D03*
X0175000Y0208835D03*
X0165000Y0208835D03*
X0155000Y0208835D03*
X0145000Y0208835D03*
X0135000Y0208835D03*
X0125000Y0208835D03*
X0115000Y0208835D03*
X0105000Y0208835D03*
X0095000Y0208835D03*
X0095000Y0218835D03*
X0085000Y0218835D03*
X0105000Y0218835D03*
X0115000Y0218835D03*
X0125000Y0218835D03*
X0135000Y0218835D03*
X0145000Y0218835D03*
X0155000Y0218835D03*
X0165000Y0218835D03*
X0175000Y0218835D03*
X0185000Y0218835D03*
X0195000Y0218835D03*
X0205000Y0218835D03*
X0215000Y0218835D03*
X0225000Y0218835D03*
X0235000Y0218835D03*
X0245000Y0218835D03*
X0255000Y0218835D03*
X0265000Y0218835D03*
X0275000Y0218835D03*
X0285000Y0218835D03*
X0295000Y0218835D03*
X0305000Y0218835D03*
M02*
